<?xml version="1.0" encoding="UTF-8" standalone="no"?>
<svg
   width="120"
   height="60"
   fill="#2e3134"
   fill-rule="evenodd"
   version="1.1"
   id="svg5"
   sodipodi:docname="ghost.svg"
   inkscape:version="1.3 (0e150ed6c4, 2023-07-21)"
   xmlns:inkscape="http://www.inkscape.org/namespaces/inkscape"
   xmlns:sodipodi="http://sodipodi.sourceforge.net/DTD/sodipodi-0.dtd"
   xmlns="http://www.w3.org/2000/svg"
   xmlns:svg="http://www.w3.org/2000/svg">
  <defs
     id="defs5" />
  <sodipodi:namedview
     id="namedview5"
     pagecolor="#ffffff"
     bordercolor="#000000"
     borderopacity="0.25"
     inkscape:showpageshadow="2"
     inkscape:pageopacity="0.0"
     inkscape:pagecheckerboard="0"
     inkscape:deskcolor="#d1d1d1"
     inkscape:zoom="6.7083333"
     inkscape:cx="60"
     inkscape:cy="30.037267"
     inkscape:window-width="1600"
     inkscape:window-height="819"
     inkscape:window-x="0"
     inkscape:window-y="0"
     inkscape:window-maximized="1"
     inkscape:current-layer="svg5" />
  <path
     d="M83.887 23.05c-4.342 0-6.585 3.106-6.585 6.937s2.187 6.937 6.585 6.937 6.584-3.106 6.584-6.937-2.243-6.937-6.585-6.937zM87.17 30c-.003 2.464-.824 4.46-3.285 4.46S80.603 32.465 80.6 30v-.012c.003-2.463.824-4.46 3.285-4.46s3.282 1.995 3.285 4.46zM64.445 17.88c0-.177.142-.34.32-.367l2.376-.34c.22-.03.5.128.5.44v7.1c.52-.5 1.1-.9 1.713-1.208s1.355-.46 2.194-.46c.727 0 1.37.125 1.934.374a3.82 3.82 0 0 1 1.409 1.05c.376.45.662 1 .857 1.615s.292 1.315.292 2.068v8.253a.32.32 0 0 1-.322.32h-2.562c-.177 0-.32-.143-.322-.32v-8.253c0-.823-.188-1.46-.565-1.9s-.94-.676-1.694-.676a3.31 3.31 0 0 0-1.557.38 5.58 5.58 0 0 0-1.376 1.037v9.42a.32.32 0 0 1-.322.32h-2.562a.32.32 0 0 1-.322-.321V17.88zM103.66 33.2v-7.02h-2.167c-.177 0-.28-.14-.232-.308l.482-1.687a.44.44 0 0 1 .37-.333l1.542-.217.564-3.775a.46.46 0 0 1 .365-.363l1.762-.254a.44.44 0 0 1 .513.451v3.94h2.823c.178 0 .322.144.322.322v1.9a.32.32 0 0 1-.322.322h-2.823V33.1c0 .967.582 1.337 1.14 1.337.34 0 .808-.183 1.157-.347.215-.1.55-.026.635.278l.394 1.4c.05.17-.04.38-.197.46 0 0-1.17.7-2.74.7-2.206 0-3.6-1.3-3.6-3.722zm-7.166-7.673c-1.14 0-2.034.398-2.034 1.355 0 1.196 1.93 1.544 3.252 2.03.883.326 3.253.96 3.253 3.538 0 3.13-2.57 4.47-5.313 4.47s-4.082-.878-4.082-.878c-.155-.085-.24-.293-.193-.464l.424-1.5c.078-.27.388-.365.586-.288.706.275 1.98.658 3.42.658 1.46 0 2.164-.45 2.164-1.4 0-1.278-1.97-1.668-3.272-2.084-.897-.286-3.272-.953-3.272-3.788 0-2.792 2.424-4.102 5.015-4.102 2.193 0 3.778.754 3.778.754a.37.37 0 0 1 .206.433L100 25.745c-.08.28-.305.408-.6.315-.625-.205-1.8-.534-2.917-.534zm-33.8-2.456a4.01 4.01 0 0 0-2.34 1.114c-.975-.773-2.33-1.142-3.848-1.142-3.046 0-5.426 1.487-5.426 4.73 0 1.86.783 3.144 2.027 3.9-.924.442-1.54 1.38-1.54 2.304 0 1.544 1.206 2.027 1.206 2.027s-2.108 1.035-2.108 3.105c0 2.65 2.4 3.722 5.358 3.722 4.247 0 7.17-1.775 7.17-5.033 0-2.005-1.517-3.112-4.823-3.244l-3.548-.255c-.416-.14-.62-.477-.62-.85 0-.4.333-.8.86-1.07a8.22 8.22 0 0 0 1.445.123c3.05 0 5.426-1.483 5.426-4.73 0-.787-.14-1.47-.396-2.055.448-.242 1.34-.36 1.34-.36a.39.39 0 0 0 .317-.371V23.52c0-.302-.255-.475-.5-.447zM54.8 36.755l3.198.136c1.796.084 2.355.475 2.355 1.416 0 1.15-1.56 2.267-3.742 2.267-2.07 0-3.104-.73-3.104-1.94 0-.696.363-1.474 1.292-1.877zm1.713-6.515c-1.443 0-2.57-.775-2.57-2.466s1.127-2.466 2.57-2.466 2.57.773 2.57 2.466-1.125 2.466-2.57 2.466z"
     id="path1"
     style="fill:#fdfdfd;fill-opacity:1" />
  <g
     transform="matrix(.354684 0 0 .354684 9.733014 14.572146)"
     opacity=".6"
     id="g5"
     style="fill:#fdfdfd;fill-opacity:1">
    <rect
       x=".209"
       y="69.017"
       width="33.643"
       height="17.014"
       rx="4"
       id="rect1"
       style="fill:#fdfdfd;fill-opacity:1" />
    <rect
       x="50.672"
       y="69.017"
       width="33.622"
       height="17.014"
       rx="4"
       id="rect2"
       style="fill:#fdfdfd;fill-opacity:1" />
    <rect
       x=".184"
       y="34.99"
       width="84.121"
       height="17.014"
       rx="4"
       id="rect3"
       style="fill:#fdfdfd;fill-opacity:1" />
    <rect
       x=".209"
       y=".964"
       width="50.469"
       height="17.013"
       rx="4"
       id="rect4"
       style="fill:#fdfdfd;fill-opacity:1" />
    <rect
       x="67.494"
       y=".964"
       width="16.821"
       height="17.013"
       rx="4"
       id="rect5"
       style="fill:#fdfdfd;fill-opacity:1" />
  </g>
</svg>
