<?xml version="1.0" encoding="UTF-8" standalone="no"?>
<svg
   viewBox="-564.253 -646.857 2236146.5 2252304.6"
   version="1.1"
   id="svg1"
   sodipodi:docname="silhouetteavatar.svg"
   width="2236146.5"
   height="2252304.5"
   xmlns:inkscape="http://www.inkscape.org/namespaces/inkscape"
   xmlns:sodipodi="http://sodipodi.sourceforge.net/DTD/sodipodi-0.dtd"
   xmlns="http://www.w3.org/2000/svg"
   xmlns:svg="http://www.w3.org/2000/svg">
  <defs
     id="defs1" />
  <sodipodi:namedview
     id="namedview1"
     pagecolor="#ffffff"
     bordercolor="#000000"
     borderopacity="0.25"
     inkscape:showpageshadow="2"
     inkscape:pageopacity="0.0"
     inkscape:pagecheckerboard="0"
     inkscape:deskcolor="#d1d1d1" />
  <path
     d="m 241.84724,-646.85665 h 23.366 l 13.351,6.68515 h 36.717 l 16.689,6.68516 h 13.352 l 3.338,3.34257 36.717,6.68516 80.109,26.73961 30.041,16.71188 20.027,6.68515 30.041,20.05446 36.717,16.71288 73.434,53.47922 101.806,98.603 60.082,80.21883 20.027,40.10991 16.689,23.39704 26.703,60.16437 3.338,16.71188 6.676,10.02773 20.027,60.164371 3.338,26.73961 3.338,3.342576 v 16.712882 l 3.338,3.342577 3.338,30.082186 3.338,3.341575 V 9.9385855 l 3.338,3.3425765 V 183.74655 l -3.338,3.34258 v 43.45249 l -10.014,30.08218 v 13.36931 l -3.338,3.34257 -3.338,26.73961 -13.351,30.08219 -13.352,46.79507 -33.379,73.53368 -66.757,106.95944 c -13.574,10.91794 -24.7,24.28825 -33.379,40.10891 l -75.103,75.20597 -86.785,66.84952 -51.737,28.4109 -1.669,5.01386 c -3.338,-5.57062 -6.676,-4.4571 -10.014,3.34258 l -20.027,10.02673 -1.669,-15.04059 -13.352,-26.73961 v -20.05546 l 16.69,-33.42476 10.013,-30.08219 v -30.08219 l -16.689,-40.10891 -11.683,-11.69902 -10.013,-3.34257 h -30.041 l -3.338,3.34257 h -20.028 l -18.358,18.38317 -6.676,13.37031 v 10.02773 l -8.345,11.69801 -33.378,-6.68415 c -18.804,-7.91083 -34.937,-18.49532 -48.4,-31.75347 l -3.338,-13.37031 11.683,-11.69902 20.027,-10.02673 16.69,-3.34257 c 4.117,-8.13414 11.905,-12.59024 23.365,-13.37031 l 3.338,3.34258 h 20.027 l 16.69,-6.68515 40.054,-3.34258 8.345,3.34258 c 3.287,17.42185 11.632,30.79215 25.034,40.10991 h 13.352 l 13.351,-10.02773 c 1.669,3.90034 6.12,5.01387 13.352,3.34258 l 8.345,-3.34258 3.338,-8.35544 V 514.6506 l -3.338,-3.34258 v -33.42476 l 36.716,-53.47922 3.338,-20.05446 6.676,-13.3703 v -30.08219 l -8.345,-11.69802 c -6.305,-4.8276 -16.318,-5.94213 -30.041,-3.34257 -1.669,3.89934 -6.119,5.01386 -13.351,3.34257 l -5.007,5.01387 1.669,5.01286 -8.345,-1.67129 c 3.894,-2.04179 5.007,-5.94113 3.338,-11.69801 l -35.048,3.34257 c -10.755,3.71409 -19.1,9.84148 -25.034,18.38317 l -13.352,30.08219 -6.675,53.47922 -11.683,11.69902 -50.068,30.08218 -10.014,3.34258 h -16.689 l -5.007,-5.01387 c 1.669,-7.24191 0.556,-11.69901 -3.338,-13.3703 v -16.71188 l 11.682,-18.38317 46.731,-13.37031 15.02,-11.69901 -6.675,-10.02673 v -6.68515 l 15.02,-18.38317 c 17.691,-9.02536 32.711,-20.72338 45.062,-35.09605 l 15.02,-25.06833 5.007,1.67129 -16.689,23.39704 5.006,1.67128 16.69,-6.68515 21.696,-15.04159 -5.007,-5.01287 -18.358,-1.67128 31.71,-1.67129 3.338,-3.34258 36.717,-3.34257 20.027,-6.68516 13.351,-10.02773 36.717,-16.71188 18.359,-18.38317 -3.338,-43.45249 -3.338,-3.34257 v -10.02773 l -3.338,-3.34158 V 190.4317 l -3.338,-3.34257 V 177.0614 l -10.014,-30.08219 v -13.3693 l -3.337,-3.34258 V 120.2396 l -6.676,-16.71188 V 90.157415 l -3.338,-3.342576 V 70.102958 l -3.338,-3.342577 V 33.335619 l -3.338,-3.342577 V 9.9385855 l -3.338,-3.3425764 -3.338,-33.4247631 -3.338,-3.342576 -6.675,-86.90398 -13.352,-30.08219 -3.338,-33.42476 -3.338,-3.34258 v -10.02773 l -13.351,-33.42376 v -10.02773 l -10.014,-30.08218 -43.392,-86.90399 -3.338,-16.71288 c -6.982,-7.49226 -11.433,-17.51998 -13.352,-30.08218 l -36.717,-50.13665 -13.351,-30.08218 -20.028,-30.08219 -61.751,-65.17824 -23.365,-16.71188 h -6.676 l -10.013,-10.02773 h -6.676 l -6.676,-6.68515 -46.73,-23.39703 -20.028,-6.68516 c -5.563,-2.22805 -6.675,-4.4571 -3.338,-6.68515 z m 20.101,3.51682 v 3.00411 z m 3,3.00411 v 4.00548 l 24,10.01371 h 23 c 1.333,3.33757 5.667,4.33894 13,3.00412 2.667,4.6734 5,4.6734 7,0 l 13,7.00959 27,3.00412 10,7.00959 33,6.00823 10,7.0096 27,7.00959 10,6.00823 30,10.01371 7,7.0096 13,3.00411 24,17.02331 46,23.03153 47,37.05073 10,3.00411 74,70.09597 h 5 v 5.00686 l 33,34.04661 57,77.10557 v 6.00822 l 10,10.01371 13,30.04113 27,44.06033 20,60.08226 6,10.01371 v 10.01371 l 10,23.03153 10,50.068549 4,4.005484 v 10.01371 l 3,3.004113 3,40.05484 7,10.01371 V 170.77479 c -4.667,2.00274 -4.667,4.00548 0,6.00823 2,12.01645 -0.333,20.02742 -7,24.0329 v 30.04113 l -6,16.02194 v 14.01919 l -4,3.00411 -3,27.03702 -7,10.01371 v 13.01782 l -10,20.02742 -10,37.05073 -6,7.0096 v 10.01371 l -34,70.09597 -6,6.00822 v 7.0096 l -34,47.06444 -6,16.02193 -37,44.06033 c 1.333,4.6734 -0.333,6.34168 -5,5.00685 l -18,22.03016 c 1.333,5.34032 -1,7.0096 -7,5.00686 v 6.00823 h -5 l -28,29.03975 v 5.00686 h -5 l -54,46.06307 c -6,-1.33483 -7.667,1.00137 -5,7.00959 h -8 l -37,30.04113 -33,17.02331 -7,6.00822 -20,4.00549 -3,3.00411 h -9 v 20.02742 c 11.333,-1.33483 19.667,-7.00959 25,-17.0233 l 44,-20.02742 96,-73.10009 9,-12.01645 15,-11.01508 55,-55.07541 c 9.333,-17.35676 21.667,-32.04387 37,-44.06032 l 20,-37.05073 26,-36.04935 v -7.0096 l 20,-30.04113 7,-23.03153 13,-24.03291 14,-43.05895 6,-10.01371 v -10.01371 l 7,-10.01371 v -10.01371 l 7,-10.01371 V 280.9256 l 6,-10.01371 v -17.02331 l 7,-20.02742 v -13.01782 l 3,-4.00548 V 79.650029 l 4,-3.004113 -4,-3.004113 V -0.459651 c -4.667,-2.6706565 -5.667,-9.3457955 -3,-20.02742 l -3,-3.004113 v -17.023307 l -4,-3.004113 v -17.023307 l -3,-3.004113 -3,-27.037017 -7,-6.008226 v -14.019193 l -13,-40.05484 -10,-17.02331 v -10.01371 l -30,-66.09048 -20,-30.04113 v -7.0096 l -27,-40.05484 -20,-20.02742 -10,-20.02742 -13,-13.01782 c 1.333,-6.00823 -1,-7.67752 -7,-5.00686 v -5.00685 l -40,-44.06033 -42,-38.0521 -47,-34.04661 -16,-16.02194 -107,-60.08226 h -7 l -40,-20.02742 h -10 l -7,-7.00959 c -13.333,0 -23.333,-3.33757 -30,-10.01371 h -13 l -10,-7.0096 h -13 l -30,-10.01371 h -14 l -3,-3.00411 h -27 l -3,-3.00412 h -17 z m 347,571.782841 -1,32.043872 3,3.004113 v 23.031533 l 7,17.023307 v 23.031533 l 3,4.005484 v 33.045243 l 3,3.004113 v 14.019194 l 7,17.023307 v 13.01782 l 10,30.04113 v 10.01371 l 3,3.00412 4,27.03701 6,13.01783 4,27.03701 3,3.00412 v 20.02742 l 2,2.00274 8,-8.01097 -7,-17.02331 4,-10.01371 -10,-27.03701 V 173.7789 l -10,-23.03153 v -17.02331 l -4,-3.00411 -3,-27.03702 -3,-3.00411 -4,-37.050727 -6,-14.019194 V 33.586963 c -4.667,-2.670656 -4.667,-5.006855 0,-7.009597 l -4,-7.009597 v -20.02742 l -6,-16.021936 v -17.023307 l -4,-3.004113 v -14.019194 l -3,-3.004113 z m 57,317.434609 v 3.00411 z m -3,13.01782 -2,5.00686 h 3 z m -4,7.0096 v 3.00411 z m -3,3.00411 v 4.00549 z m -7,4.00549 -6,6.00822 h -7 l -27,14.01919 -16,13.01783 -30,10.01371 h -20 l -5,5.00685 15,2.00275 3,3.00411 c 2,-4.00549 6.333,-5.00686 13,-3.00411 l 7,-7.0096 h 7 l 10,-7.0096 h 6 l 27,-16.02194 h 7 l 10,-10.01371 h 8 l 3,-9.01233 z m -123,50.06855 v 3.00411 z m -70,43.05895 -35,25.03427 c -2.667,10.01371 -1,16.3554 5,19.02605 h 5 v -10.01371 h 5 l 22,-29.03976 z m 133,24.0329 -8,21.02879 2,12.01646 8,-22.03017 z m -10,33.04525 -11,22.03016 -20,23.03153 -7,17.02331 5,8.01097 c 1.333,-10.01371 5.333,-17.35677 12,-22.03017 v -6.00822 l 10,-5.00686 v -9.01234 l 13,-16.02193 z m -173,7.00959 -7,3.00412 c -2,4.67339 -4.333,4.67339 -7,0 l -3,3.00411 -23,4.00548 -15,21.02879 3,24.03291 10,5.00685 c -1.333,-6.00822 -0.333,-10.01371 3,-12.01645 v -20.02742 l 15,-15.02056 c 13.333,-0.66792 23,-4.6734 29,-12.01646 z m 43,113.15492 v 3.00412 l 9,-1.00137 z m -113,20.02743 -20,10.01371 c -6.667,1.33482 -9.667,6.34168 -9,15.02056 l 19,19.02605 26,13.01782 24,3.00411 3,4.00549 8,-2.00274 -25,-8.01097 -16,-10.01371 -15,-15.02057 v -10.01371 l 20,-17.0233 z m 127,0 -5,5.00685 11,5.00686 5,-2.00275 z m 53,13.01782 c -2.667,6.67614 -7.667,9.01234 -15,7.00959 l 3,19.02605 17,33.04525 v 23.03153 l -7,10.01371 -6,27.03702 -14,27.03701 v 5.00686 h 10 v -9.01234 l 7,-10.01371 v -6.00823 l 7,-10.01371 v -10.01371 l 6,-7.00959 c -1.333,-7.34306 0,-11.683 4,-13.01783 l -4,-4.00548 v -33.04524 l -6,-10.01371 -4,-23.03154 -3,-4.00548 8,-5.00686 c 3.333,-2.00274 2.333,-4.33894 -3,-7.00959 z m -390.589,60.65905 h 20.027 l 10.014,3.34257 10.014,6.68516 23.365,6.68515 13.352,10.02673 h 6.675 l 16.69,10.02773 20.027,3.34257 20.028,10.02773 h 10.013 l 26.703,13.36931 16.69,3.34257 60.082,53.47922 10.013,6.68516 h 6.676 l 15.021,15.04159 c 0.194,17.63114 5.757,29.88692 16.689,36.76634 l -8.344,1.67128 -10.014,-6.68515 -6.676,6.68515 h -23.365 l -30.041,10.02773 -40.055,3.34258 -3.338,3.34258 -36.717,3.34257 -11.682,5.01287 36.717,3.34257 -41.724,5.01387 v -3.34258 l 5.007,-1.67129 c -2.225,-5.57062 -8.345,-7.24091 -18.359,-5.01286 l -13.351,6.68415 h -63.42 c -2.225,-4.4561 -4.451,-4.4561 -6.676,0 l -43.392,-3.34258 -20.028,-6.68415 h -43.392 l -6.676,-6.68515 -40.055,-3.34258 -10.013,-6.68515 h -10.014 l -33.379,-13.3693 h -10.014 l -20.027,-6.68516 -18.358,-18.38417 c 1.483,-5.849 -0.742,-7.52029 -6.676,-5.01286 l -5.007,10.02673 -5.007,-1.67129 6.676,-10.02673 v -40.10991 l 3.338,-10.02773 8.344,-8.35544 c 15.152,-2.65464 27.391,-8.22526 36.717,-16.71288 h 6.676 l 20.027,-13.36931 16.69,-3.34257 30.041,-16.71289 20.027,-3.34257 3.338,-3.34258 h 13.352 l 13.351,-6.68415 h 13.352 l 10.013,-6.68515 h 10.014 z m -16.411,6.43281 -20,10.01371 -50,10.01371 -19,9.01233 9,5.00686 40,-14.01919 h 16 l 10,-6.00823 h 14 l 10,-7.0096 h 13 l 3,-3.00411 15,-2.00274 z m -94,30.04112 v 4.00549 z m -50,20.02743 c -5.333,2.67065 -6.333,5.00685 -3,7.00959 6.667,1.33483 10.667,-0.33345 12,-5.00685 z m -6,7.00959 v 3.00412 z m -14,3.00412 c -3.333,2.67065 -2,5.00685 4,7.00959 l 5,-5.00685 z m -17,7.00959 -5,5.00686 5,5.00685 9,-8.01097 z m -16,7.0096 -9,3.00411 -3,8.01097 c 1.333,4.6734 5.333,6.34168 12,5.00686 l 11,-15.02057 z m -60.296,-374.67097 16.69,16.71188 26.703,16.71288 20.027,6.68415 h 16.689 l 20.028,6.68516 5.007,5.01386 c 3.337,9.74835 1.668,13.64869 -5.007,11.69902 l -26.703,-16.71288 -20.028,-3.34258 -16.689,-10.02673 h -6.676 l -10.014,-6.68515 h -13.351 l -3.338,-3.34258 -3.338,3.34258 -5.007,-1.67129 c 2.503,7.42717 0.834,10.21298 -5.007,8.35644 l 1.669,-5.01386 v -13.37031 z m -3.338,0 1.669,5.01386 -6.676,10.02673 c 2.225,8.9132 1.113,14.48483 -3.338,16.71288 l 6.676,1.67129 1.669,-10.02773 10.014,3.34258 h 13.351 l 33.379,16.71188 20.028,3.34258 6.675,6.68515 25.035,10.02773 1.669,-10.02773 13.351,16.71288 c 17.023,4.12264 29.819,12.47808 38.386,25.06832 l 3.338,16.71188 13.351,20.05446 3.338,16.71288 -3.338,8.35644 h -8.344 l -16.69,-10.02773 h -16.689 l -10.014,6.68516 -23.365,-26.73961 -16.69,-6.68516 -93.461,-66.84952 h -5.006 l -3.338,-8.35644 v -10.02673 l 10.013,-30.08219 z m -0.366,47.22265 -1,5.00686 c 2,5.34031 4,6.34168 6,3.00411 z m 14,13.01783 v 3.00411 z m 6,3.00411 -1,2.00274 8,8.01097 5,-1.00137 z m 97,7.00959 v 3.00412 z m -83,3.00412 -2,2.00274 8,8.01097 27,20.02742 44,24.0329 16,23.03154 15,-12.01646 z m 87,0 c 0,6.00822 4.333,9.34579 13,10.01371 l 23,24.0329 2,-2.00274 -3,-15.02056 h -5 l -17,-13.01783 z m 46,54.07403 -5,10.01371 -10,1.00137 19,15.02057 8,-5.00686 z m 46.991,-1120.04548 16.69,3.34258 c 2.225,-4.4571 4.45,-4.4571 6.675,0 l 23.366,-3.34258 v 3.34258 l -13.352,6.68515 h -13.351 c -1.669,-3.89934 -6.12,-5.01386 -13.352,-3.34258 l -13.352,6.68516 -23.365,20.05445 -30.041,16.71289 -50.068,46.79406 c -18.662,8.05203 -33.683,19.75105 -45.062,35.09605 l -36.716,50.13665 -30.042,33.42476 -16.689,23.39703 v 6.68516 l -6.676,10.02773 -33.379,40.10991 -10.013,23.39703 -20.028,30.08219 -3.338,20.05446 -10.013,16.71288 v 6.68415 l -43.393,76.87726 v 10.02772 l -16.689,36.76634 -3.338,26.74061 -3.338,3.34158 v 70.1921 l -3.338,3.342576 v 46.794067 l -3.338,3.342577 v 40.109915 l -3.338,3.342576 V 197.11686 c -4.451,2.22805 -5.563,7.79867 -3.338,16.71188 l 3.338,3.34257 v 20.05446 l 11.683,11.69902 53.406,26.73961 20.027,3.34257 18.359,15.0406 -3.338,16.71288 -10.014,10.02773 -30.041,50.13664 v 23.39703 l 23.366,30.08219 v 23.39703 l -6.676,13.37031 c 1.483,9.28471 0.371,15.96986 -3.338,20.05446 l 3.338,3.34257 v 16.71288 l 6.676,18.38317 11.682,3.34258 c 14.325,-6.82434 26.008,-16.29431 35.048,-28.4109 l 11.683,-15.04159 h 5.006 c -2.503,-5.94214 -0.834,-8.17019 5.007,-6.68415 2.225,-6.68516 8.901,-8.91321 20.028,-6.68516 l 45.061,31.75348 11.683,15.04059 56.744,30.08219 13.351,3.34257 33.379,23.39704 h 6.676 l 10.014,6.68515 15.02,3.34258 3.338,15.04159 -11.682,8.35544 h -13.352 l -30.041,10.02773 h -13.352 l -33.378,13.3703 -36.717,3.34258 -13.352,6.68415 h -23.365 l -3.338,3.34258 c -1.669,-3.89934 -6.119,-5.01387 -13.351,-3.34258 l -18.359,-18.38317 -21.696,-25.06832 c -8.901,-8.9132 -22.253,-13.3703 -40.055,-13.3703 l -25.034,21.72574 c -4.451,5.57063 -5.563,14.48483 -3.338,26.74061 l 20.027,43.45149 21.697,25.06832 c 13.537,4.27085 24.107,11.51377 31.71,21.72675 l -1.669,31.75347 -5.007,-13.3703 h -8.345 l -13.351,-6.68515 c -10.655,-11.6139 -24.006,-20.52711 -40.055,-26.73961 l -50.068,-43.45149 h -5.007 v -6.68516 h -6.676 c 2.503,-5.94213 0.834,-8.17018 -5.007,-6.68515 -6.676,-2.50643 -9.458,-6.96353 -8.345,-13.37031 l -10.013,-5.01286 c 1.669,-5.01386 0,-6.68515 -5.007,-5.01386 l -5.007,-10.02773 -10.014,-5.01387 -5.006,-8.35644 c -5.007,1.67129 -6.676,10e-4 -5.007,-5.01286 l -40.055,-46.79507 -20.027,-33.42476 -10.014,-10.02673 -23.365,-46.79507 -6.676,-6.68515 -13.352,-26.73961 v -6.68515 l -6.675,-6.68415 v -6.68516 l -10.014,-16.71288 -3.338,-16.71188 -13.351,-26.73961 v -10.02773 l -6.676,-20.05446 -6.676,-10.02773 -3.338,-30.08218 -6.676,-10.02773 -3.338,-33.42376 -6.675,-16.71288 V 177.0614 l -3.338,-10.02673 c 4.451,-2.22805 4.451,-4.4571 0,-6.68515 v -26.73961 l -3.338,-3.34258 V 53.390076 l 3.338,-3.342577 c -2.225,-8.913203 -1.113,-14.48383 3.338,-16.71188 V 6.5960091 l 3.338,-3.3425764 c -3.895,-1.6712882 -5.007,-6.1273892 -3.338,-13.3703057 l 3.338,-3.341575 v -20.055458 l 6.675,-13.369305 v -20.055458 l 13.352,-30.082186 v -10.026725 l 6.676,-10.02773 v -10.02773 l 10.013,-20.05446 v -10.02773 l 10.014,-16.71188 10.014,-33.42476 10.013,-13.37031 6.676,-20.05445 10.014,-10.02773 3.338,-13.36931 10.013,-10.02773 3.338,-10.02773 33.379,-50.13664 20.027,-20.05446 v -8.35644 c 6.398,1.11453 10.849,-1.67128 13.352,-8.35644 -1.113,-6.68415 0.556,-10.58349 5.007,-11.69801 l 11.682,-8.35644 5.007,-8.35645 c 5.007,1.67129 6.676,0 5.007,-5.01386 l 10.014,-6.68415 -1.669,-5.01387 13.351,-10.02773 h 5.007 c -2.503,-5.94213 -0.834,-8.17018 5.007,-6.68515 l 5.007,-10.02673 10.014,-5.01386 c -1.669,-5.01387 -0.001,-6.68515 5.006,-5.01387 l 41.724,-35.09605 c -1.669,-5.01386 0,-6.68515 5.007,-5.01386 l 40.055,-26.73961 h 8.344 c -2.503,-5.94214 -0.834,-8.17019 5.007,-6.68515 l 43.393,-23.39704 16.689,-13.3693 h 6.676 l 23.365,-13.37031 26.703,-6.68515 10.014,-6.68515 h 10.014 l 6.675,-6.68415 h 10.014 l 13.352,-6.68516 h 25.034 l 3.338,8.35644 -21.697,21.72575 -16.689,13.3693 -10.014,3.34258 -28.372,25.06932 c 1.484,5.84901 -0.741,7.5193 -6.675,5.01287 v 6.68515 h -5.007 l -25.034,31.75347 -6.676,16.71289 1.669,1.67028 8.344,-8.35544 13.352,-20.05546 38.386,-41.7802 30.041,-20.05546 40.054,-36.76633 40.055,-23.39804 18.358,-15.04059 -8.344,-1.67129 c -2.782,5.01387 -9.458,6.12739 -20.028,3.34258 l -10.013,6.68515 h -16.69 l -20.027,10.02673 -23.365,3.34257 -10.014,6.68516 h -6.676 l -6.676,6.68515 h -13.351 l -13.352,6.68515 h -10.013 l -6.676,6.68415 h -6.676 l -16.689,10.02773 h -10.014 c -9.807,9.11949 -22.046,15.80464 -36.717,20.05446 l -40.054,26.73961 -16.69,6.68515 -33.379,26.73961 -10.014,3.34258 -101.805,95.26042 -45.062,58.49309 -1.669,-5.01387 c 8.123,-4.79056 12.573,-12.03247 13.352,-21.72574 5.934,2.50643 8.159,0.83514 6.676,-5.01387 l 48.399,-55.15051 11.683,-8.35644 c -1.113,-6.68415 0.556,-10.58349 5.007,-11.69801 l 10.013,-3.34258 43.393,-40.10991 40.054,-30.08219 26.704,-13.3693 16.689,-13.37031 23.365,-10.02773 6.676,-6.68415 23.365,-10.02773 6.676,-6.68515 h 6.676 l 33.379,-16.71188 20.027,-3.34258 50.068,-20.05546 h 10.014 l 23.365,-10.02673 h 16.69 l 13.351,-6.68515 30.041,-3.34258 z m -203.991,176.754 -21,29.03976 1,5.00685 25,-29.03975 c 2,-4.6734 0.333,-6.34169 -5,-5.00686 z m -23,34.04661 -5,8.01097 c 2,3.33757 4.333,2.3362 7,-3.00411 z m -10,10.01371 -5,8.01097 c 2,3.33757 4.333,2.3362 7,-3.00411 z m -7,16.02194 v 4.00548 z m -6,7.0096 -12,15.02056 2,5.00686 15,-18.02468 z m -14,20.02742 v 4.00548 z m -3,4.00548 v 3.00411 z m -3,3.00411 -9,12.01646 2,1.00137 8,-8.01097 z m -10,13.01783 -19,25.03427 v 7.0096 l -10,10.01371 2,12.01645 18,-29.03976 4,-13.01782 6,-7.0096 z m -77,150.20565 -2,5.00685 h 4 z m -4,7.00959 -8,8.01097 -17,37.05073 -3,24.0329 -10,16.02194 v 17.02331 l -3,10.013706 v 30.04113 l 3,3.004113 -3,4.005484 v 30.04113 l -4,3.004113 v 63.086373 c -4,2.670656 -4,5.006855 0,7.009597 l -6,13.017823 v 61.083631 l 3,3.00411 -3,7.0096 v 93.1275 l 5,8.01097 1,-65.08911 4,-3.00412 c 2,-8.67888 0.667,-14.35265 -4,-17.0233 V 76.645916 c 5.333,-2.670656 6.667,-9.345796 4,-20.02742 l 3,-3.004113 V -0.459651 l 3,-3.004113 v -33.045243 l 4,-4.005484 v -66.090489 l 10,-27.03701 v -10.01371 l 13,-27.03702 3,-20.02742 7,-10.01371 z m -43,444.60873 v 3.00411 z m 3,7.0096 v 3.00411 z m 4,3.00411 -2,2.00274 12,11.01508 30,17.02331 20,7.00959 7,6.00823 c 7.333,-2.00274 10,-0.33346 8,5.00686 l 15,12.01645 c 6.667,-1.33483 9.333,-6.34168 8,-15.02057 l -15,-12.01645 h -10 l -26,-13.01782 -17,-3.00411 z m 162,220.30162 v 5.00685 l 55,39.05347 1,-5.00685 -31,-29.03976 -17,-10.01371 z m 58,44.06032 v 3.00412 z m 3,3.00412 v 3.00411 l 5,-1.00137 z m -120,7.00959 v 3.00412 z m 130,0 v 3.00412 z m 4,3.00412 -2,2.00274 8,5.00685 9,-2.00274 z m 16,7.00959 -1,1.00137 11,9.01234 5,-2.00274 c -0.667,-6.67614 -5.667,-9.3458 -15,-8.01097 z m 27,13.01782 c -2.667,2.00275 -1.333,3.00412 4,3.00412 l 5,2.00274 c 1.333,-6.00823 -1.667,-7.67751 -9,-5.00686 z m 14,7.0096 v 3.00412 z m 3,3.00412 v 3.00411 l 5,-1.00137 z m 48,30.04112 v 10.01372 c 8.667,2.67065 14.333,1.00137 17,-5.00686 -2.667,-5.34031 -8.333,-7.0096 -17,-5.00686 z m -162,40.05484 -1,7.0096 10,-2.00274 z"
     id="path1"
     style="stroke-width:1.00069" />
</svg>
