<?xml version="1.0" encoding="UTF-8" standalone="no"?>
<svg
   width="64"
   height="64"
   version="1.1"
   id="svg3"
   sodipodi:docname="shop.svg"
   inkscape:export-filename="spreadshop.svg"
   inkscape:export-xdpi="96"
   inkscape:export-ydpi="96"
   inkscape:version="1.3 (0e150ed6c4, 2023-07-21)"
   xmlns:inkscape="http://www.inkscape.org/namespaces/inkscape"
   xmlns:sodipodi="http://sodipodi.sourceforge.net/DTD/sodipodi-0.dtd"
   xmlns="http://www.w3.org/2000/svg"
   xmlns:svg="http://www.w3.org/2000/svg">
  <defs
     id="defs3">&#10;	&#10;	&#10;	&#10;	&#10;	&#10;	&#10;	&#10;	&#10;	&#10;	&#10;	&#10;</defs>
  <sodipodi:namedview
     id="namedview3"
     pagecolor="#ffffff"
     bordercolor="#000000"
     borderopacity="0.25"
     inkscape:showpageshadow="2"
     inkscape:pageopacity="0.0"
     inkscape:pagecheckerboard="0"
     inkscape:deskcolor="#d1d1d1"
     showguides="true"
     inkscape:zoom="9.609375"
     inkscape:cx="38.295935"
     inkscape:cy="32"
     inkscape:window-width="1600"
     inkscape:window-height="819"
     inkscape:window-x="0"
     inkscape:window-y="0"
     inkscape:window-maximized="1"
     inkscape:current-layer="layer1">
    <sodipodi:guide
       position="-6.5560976,57.235772"
       orientation="1,0"
       id="guide3"
       inkscape:locked="false" />
  </sodipodi:namedview>
  <g
     inkscape:groupmode="layer"
     id="layer1"
     inkscape:label="Layer 1">
    <path
       class="st0"
       d="m 348.12868,15.919294 v 10.059901 c -3.03559,-2.109334 -7.13774,-3.204565 -12.14237,-3.204565 -2.46129,-0.04056 -4.92258,0.243385 -7.13774,0.770718 -2.05107,0.527334 -3.85602,1.257488 -5.33279,2.149898 -1.47678,1.014103 -2.62538,2.149899 -3.28172,3.326258 -0.82043,1.37918 -1.14861,2.798924 -1.14861,4.218668 -0.082,1.541437 0.41022,3.082873 1.31269,4.583746 0.73839,1.257487 2.05108,2.393283 3.69194,3.407385 1.47677,0.932975 3.36376,1.663129 5.57892,2.149899 2.21516,0.486769 4.67645,0.770718 7.13774,0.730154 5.08667,0 8.94269,-1.014103 11.40398,-3.001745 l 0.082,2.474411 h 10.50151 V 15.919294 Z m -2.05108,22.269701 c -1.64086,1.014103 -4.0201,1.622564 -6.64548,1.622564 -2.62538,0 -5.16871,-0.608461 -6.64548,-1.703693 -1.72291,-1.135795 -2.54334,-2.636667 -2.54334,-4.421488 0,-4.178105 3.11764,-6.246875 9.35291,-6.287439 6.07118,0 9.10677,2.190463 9.10677,6.571387 0.16409,1.500873 -0.82043,3.001745 -2.62538,4.218669 z"
       id="path12"
       style="fill:#333333;stroke-width:0.576888" />
    <path
       class="st0"
       d="m 310.14277,24.883964 c -1.55882,-0.730154 -3.36377,-1.257488 -5.41484,-1.541437 -2.62538,-0.365077 -5.41484,-0.567897 -8.2043,-0.527333 -2.78946,-0.04056 -5.66097,0.162256 -8.36839,0.527333 -2.05107,0.283949 -3.93806,0.770719 -5.49688,1.460309 -1.39473,0.608461 -2.46129,1.37918 -3.11764,2.27159 -0.65634,0.932975 -0.98451,1.906514 -1.06655,2.880053 h 10.09129 c 0.16408,-0.811283 0.90247,-1.582001 2.05107,-2.190463 1.06656,-0.567897 2.87151,-0.811282 5.41484,-0.811282 1.80495,-0.04056 3.52785,0.162256 5.08667,0.567898 1.80494,0.527333 2.46129,1.663128 1.39473,2.555539 -0.24613,0.202821 -0.49226,0.365077 -0.90248,0.527334 -0.90247,0.324513 -2.78946,0.567897 -5.49688,0.770718 -2.70742,0.20282 -5.25075,0.405641 -7.54795,0.649026 -2.13312,0.20282 -4.10215,0.567897 -5.98914,1.095231 -1.64086,0.486769 -3.0356,1.176359 -3.93807,2.028206 -1.06656,1.095231 -1.55882,2.27159 -1.39473,3.488514 -0.082,1.500872 1.06656,2.961181 3.28172,4.015848 2.21516,1.014103 5.66097,1.541436 10.33742,1.541436 2.46129,0.04056 5.00462,-0.20282 7.30183,-0.649026 1.96903,-0.365077 3.69193,-0.932974 5.08666,-1.703693 0.082,0.608462 0.32818,1.216924 0.65635,1.825386 l 10.09129,-0.04057 V 30.806325 c 0,-1.135795 -0.24613,-2.312155 -0.90248,-3.407386 -0.5743,-0.932974 -1.55881,-1.825385 -2.95354,-2.514975 z m -7.0557,11.03344 c 0,0.608462 -0.24613,1.176359 -0.82043,1.703693 -0.49226,0.527334 -1.23065,0.973539 -2.05108,1.37918 -0.90247,0.405641 -1.96903,0.730154 -3.11763,0.932975 -1.23065,0.243384 -2.54333,0.365077 -3.85602,0.365077 -3.52785,0 -5.25076,-0.770718 -5.25076,-2.271591 -0.082,-0.770718 0.57431,-1.500872 1.72291,-2.028206 1.1486,-0.446205 3.28172,-0.851846 6.39935,-1.135795 1.96903,-0.202821 3.52785,-0.365077 4.59441,-0.527334 0.90247,-0.121692 1.7229,-0.365077 2.37925,-0.649025 z"
       id="path13"
       style="fill:#333333;stroke-width:0.576888" />
    <path
       class="st0"
       d="m 197.25159,25.695246 c -3.11764,-1.865949 -7.79409,-2.96118 -12.71667,-2.880052 -5.08666,0 -8.94269,1.014103 -11.40398,3.001745 l -0.082,-2.474412 h -10.5015 v 27.745857 h 10.66559 V 40.987919 c 2.70742,2.028206 7.30183,3.204565 12.14236,3.164001 2.46129,0.04056 4.92258,-0.243385 7.13774,-0.770718 2.05108,-0.527334 3.85603,-1.257488 5.3328,-2.149899 1.47677,-1.014102 2.62538,-2.109334 3.28172,-3.326257 0.82043,-1.37918 1.1486,-2.798924 1.1486,-4.218668 0.082,-1.541437 -0.41021,-3.082873 -1.31269,-4.583746 -0.82043,-1.257487 -2.05107,-2.393283 -3.69193,-3.407386 z m -15.50613,13.913493 c -6.07118,0 -9.10677,-2.190463 -9.10677,-6.571387 -0.16409,-1.500873 0.82043,-3.001745 2.62537,-4.218669 1.55882,-1.014103 4.02011,-1.622564 6.64549,-1.622564 2.62537,0 5.16871,0.608461 6.64548,1.703693 1.7229,1.135795 2.54333,2.636667 2.54333,4.421488 0,4.178105 -3.11763,6.246875 -9.3529,6.287439 z"
       id="path15"
       style="fill:#333333;stroke-width:0.576888" />
    <path
       class="st0"
       d="m 268.71105,25.816939 c -3.28172,-2.028206 -8.04022,-3.001745 -14.35753,-3.001745 -2.8715,-0.04056 -5.74301,0.202821 -8.45043,0.730154 -2.37925,0.446205 -4.51236,1.135795 -6.23527,2.06877 -1.7229,0.932975 -3.03559,2.028206 -3.85602,3.245129 -0.90247,1.379181 -1.39473,2.798925 -1.31269,4.259233 0,7.382669 6.80957,11.03344 20.51076,11.03344 4.0201,0.04056 8.04021,-0.527334 11.32193,-1.703693 3.28172,-1.176359 5.66097,-2.880052 6.64548,-4.82713 h -11.15784 c -0.41022,0.68959 -1.31269,1.298052 -2.62538,1.663129 -1.39473,0.405641 -3.03559,0.608462 -4.67645,0.608462 -2.46129,0.04056 -4.84054,-0.446206 -6.4814,-1.338616 -1.7229,-1.014103 -2.70742,-2.312155 -2.70742,-3.650771 h 28.30484 c 0,-4.056412 -1.64086,-7.058156 -4.92258,-9.086362 z m -23.13613,5.678976 c 0.082,-1.216923 1.06656,-2.393283 2.70742,-3.285693 1.47677,-0.770719 3.44581,-1.17636 5.57892,-1.17636 1.06656,0 2.13312,0.08113 3.11764,0.283949 0.98451,0.162256 1.88699,0.446205 2.62537,0.811282 0.82043,0.405642 1.47678,0.851847 1.88699,1.37918 0.49226,0.608462 0.73839,1.298052 0.82043,1.947078 z"
       id="path16"
       style="fill:#333333;stroke-width:0.576888" />
    <path
       class="st0"
       d="m 226.86911,22.896322 c -1.06655,0.04056 -2.13311,0.202821 -3.11763,0.405641 -1.06656,0.202821 -2.13312,0.527334 -3.03559,0.892411 -1.06656,0.446205 -2.05108,1.014103 -2.78946,1.622565 v -2.433847 h -10.17334 v 20.282059 l 10.82968,-0.04057 v -10.54667 c 0,-3.285694 3.28172,-4.908259 9.9272,-4.908259 0.98452,0 2.05108,0.04057 3.0356,0.121693 v -5.476156 h -1.39474 c -1.1486,0 -2.21516,0.04056 -3.28172,0.08113 z"
       id="path17"
       style="fill:#333333;stroke-width:0.576888" />
    <path
       class="st1"
       d="m 485.7148,25.654682 c -1.88699,-0.932975 -4.18419,-1.663129 -6.64548,-2.149898 -2.78946,-0.527334 -5.74301,-0.811282 -8.7786,-0.770718 -3.0356,-0.04056 -6.07119,0.243384 -8.86065,0.770718 -2.54333,0.486769 -4.75849,1.216923 -6.64548,2.190462 -1.88699,0.973539 -3.36377,2.149899 -4.26624,3.407386 -0.98451,1.419744 -1.47677,2.920617 -1.47677,4.421489 0,1.500872 0.49226,2.961181 1.39473,4.380925 1.7229,2.596103 5.74301,4.624309 10.82968,5.638412 2.8715,0.567898 5.90709,0.811283 9.02473,0.770718 2.95354,0 5.90709,-0.243384 8.69655,-0.770718 2.54334,-0.486769 4.7585,-1.216923 6.64549,-2.190462 1.88699,-0.973539 3.28172,-2.149898 4.18419,-3.407386 0.98452,-1.419744 1.47678,-2.920617 1.47678,-4.421489 0.082,-1.500872 -0.49226,-3.042309 -1.47678,-4.462053 -0.82043,-1.298052 -2.21516,-2.433847 -4.10215,-3.407386 z m -15.34204,14.075749 c -6.64548,0 -10.00925,-2.06877 -10.00925,-6.246874 0,-4.178104 3.36377,-6.20631 10.00925,-6.20631 6.64548,0 10.00925,2.06877 10.00925,6.20631 0,4.13754 -3.36377,6.246874 -10.00925,6.246874 z"
       id="path19"
       style="fill:#ff9343;stroke-width:0.576888" />
    <path
       class="st1"
       d="m 397.1904,33.361865 c -1.88699,-0.527334 -3.85602,-0.932975 -5.9071,-1.216924 -2.46129,-0.324513 -5.41484,-0.770718 -9.02473,-1.257488 -1.7229,-0.20282 -3.44581,-0.527333 -5.00462,-0.932974 -1.06656,-0.243385 -1.72291,-0.730154 -1.72291,-1.298052 -0.082,-0.567898 0.65635,-1.135795 1.72291,-1.338616 1.64086,-0.283949 3.36376,-0.446205 5.08666,-0.405641 2.29721,0 4.10215,0.20282 5.25076,0.649026 1.23064,0.527333 1.96903,1.257487 2.13311,2.028206 l 10.50151,-0.08113 c -0.082,-1.865949 -1.72291,-3.65077 -4.51237,-4.908258 -2.70742,-1.176359 -7.0557,-1.784821 -12.96279,-1.784821 -2.78946,-0.04056 -5.49688,0.121692 -8.2043,0.486769 -1.96904,0.243385 -3.77398,0.68959 -5.41484,1.257488 -1.31269,0.486769 -2.37925,1.095231 -3.03559,1.825385 -0.65635,0.68959 -0.98452,1.419744 -0.98452,2.190463 0,0.770718 0.24613,1.582 0.73839,2.312154 0.5743,0.730155 1.47677,1.37918 2.70742,1.906514 1.7229,0.68959 3.60989,1.216923 5.66096,1.582001 3.11764,0.567897 6.39936,1.054667 9.68108,1.37918 1.7229,0.162256 3.44581,0.446205 5.00462,0.851846 1.06656,0.365077 1.72291,0.973539 1.64086,1.622565 0,0.68959 -0.90247,1.257487 -2.21516,1.460308 -1.7229,0.324513 -3.52785,0.486769 -5.33279,0.486769 -2.13312,0.04057 -4.1842,-0.243384 -5.98914,-0.770718 -1.47678,-0.486769 -2.37925,-1.338616 -2.29721,-2.231026 h -11.15785 c 0,2.028206 2.05108,3.934719 5.41484,5.111079 1.88699,0.649025 3.93807,1.135795 6.15323,1.419744 2.62537,0.365077 5.33279,0.527333 8.04021,0.486769 5.98914,0 10.50151,-0.608462 13.61914,-1.784821 2.87151,-1.054667 4.59441,-2.717796 4.59441,-4.502617 0.082,-0.973539 -0.24613,-1.906514 -0.98452,-2.798924 -0.65634,-0.730154 -1.80494,-1.338616 -3.19967,-1.744256 z"
       id="path21"
       style="fill:#ff9343;stroke-width:0.576888" />
    <path
       class="st1"
       d="m 439.85276,24.518887 c -2.62538,-1.135795 -6.07118,-1.703693 -10.25538,-1.703693 -2.62537,0 -5.1687,0.324513 -7.46591,0.892411 -0.98452,0.283948 -1.96903,0.608461 -2.78946,1.014102 -0.73839,0.365078 -1.39473,0.770719 -1.80495,1.257488 V 15.919294 h -10.82967 v 27.745857 h 10.82967 V 31.982685 c 0,-0.649026 0.16409,-1.298052 0.5743,-1.906514 0.32818,-0.567898 0.90248,-1.095231 1.64086,-1.582001 0.73839,-0.446205 1.64086,-0.811282 2.62538,-1.054667 1.1486,-0.283948 2.37925,-0.405641 3.60989,-0.405641 2.46129,0 4.26624,0.283949 5.41484,0.851847 1.06656,0.567897 1.64086,1.622564 1.64086,3.164001 v 12.574876 h 10.74763 V 29.264889 c 0,-2.028206 -1.31268,-3.610207 -3.93806,-4.746002 z"
       id="path22"
       style="fill:#ff9343;stroke-width:0.576888" />
    <path
       class="st1"
       d="M 31.990734,18.146997 21.307888,8.784108 1.4969741,26.147213 31.990734,52.873205 62.534647,26.147213 42.723736,8.784108 Z m 0,26.725993 -21.365694,-18.725777 10.682848,-9.36289 10.682846,9.36289 10.632693,-9.318932 10.733001,9.362889 z"
       id="use3"
       style="fill:#ff9343;stroke-width:0.469536" />
  </g>
</svg>
