<?xml version="1.0" encoding="UTF-8" standalone="no"?>
<svg
   viewBox="0 0 627 894"
   fill="none"
   version="1.1"
   id="svg2"
   sodipodi:docname="téléchargement (1).svg"
   xml:space="preserve"
   inkscape:version="1.3 (0e150ed6c4, 2023-07-21)"
   xmlns:inkscape="http://www.inkscape.org/namespaces/inkscape"
   xmlns:sodipodi="http://sodipodi.sourceforge.net/DTD/sodipodi-0.dtd"
   xmlns="http://www.w3.org/2000/svg"
   xmlns:svg="http://www.w3.org/2000/svg"><defs
     id="defs2" /><sodipodi:namedview
     id="namedview2"
     pagecolor="#ffffff"
     bordercolor="#000000"
     borderopacity="0.25"
     inkscape:showpageshadow="2"
     inkscape:pageopacity="0.0"
     inkscape:pagecheckerboard="0"
     inkscape:deskcolor="#d1d1d1"
     showgrid="false"
     inkscape:zoom="0.68791946"
     inkscape:cx="327.07317"
     inkscape:cy="447"
     inkscape:window-width="1600"
     inkscape:window-height="819"
     inkscape:window-x="0"
     inkscape:window-y="0"
     inkscape:window-maximized="1"
     inkscape:current-layer="svg2" /><path
     d="m 340.04897,205.95671 h 9.63933 l 5.50779,2.40666 h 15.14713 l 6.88484,2.40668 h 5.50819 l 1.37704,1.20335 15.14714,2.40664 33.04796,9.62631 12.39303,6.01631 8.26187,2.40667 12.39302,7.21963 15.14715,6.01665 30.29427,19.25261 41.99876,35.49724 24.78604,28.8789 8.2619,14.43962 6.88484,8.42298 11.01597,21.65928 1.37704,6.01629 2.75415,3.60999 8.2618,21.65929 1.37709,9.62628 1.37709,1.20335 v 6.01667 l 1.377,1.20334 1.37707,10.82962 1.37701,1.20297 v 7.22 l 1.37708,1.20334 v 61.36779 l -1.37708,1.20334 v 15.64295 l -4.13108,10.82964 v 4.81298 l -1.37709,1.20333 -1.37709,9.62631 -5.5077,10.82962 -5.50825,16.84631 -13.77005,26.47224 -27.53975,38.50555 c -5.5998,3.9305 -10.18968,8.74382 -13.77008,14.43927 l -30.98278,27.07426 -35.80207,24.06599 -21.34345,10.22795 -0.68851,1.80499 c -1.37703,-2.00542 -2.75412,-1.60455 -4.13116,1.20338 l -8.26189,3.60959 -0.68851,-5.41464 -5.50821,-9.62629 v -7.22003 l 6.88525,-12.03291 4.13071,-10.82968 v -10.82961 l -6.88479,-14.43927 -4.81967,-4.21166 -4.13077,-1.20339 h -12.39301 l -1.37705,1.20339 h -8.26229 l -7.57336,6.61793 -2.7541,4.81339 v 3.60994 l -3.44263,4.21133 -13.76967,-2.40636 c -7.75735,-2.84786 -14.41281,-6.65831 -19.96679,-11.43126 l -1.37705,-4.81332 4.81968,-4.21168 8.26187,-3.60964 6.88526,-1.20332 c 1.69841,-2.92832 4.91124,-4.53251 9.63892,-4.81332 l 1.37705,1.20331 h 8.26188 l 6.88526,-2.40663 16.52374,-1.20338 3.44264,1.20338 c 1.35602,6.27186 4.79864,11.08518 10.32747,14.43963 h 5.50817 l 5.5078,-3.61003 c 0.68854,1.40412 2.52473,1.80506 5.50822,1.20332 l 3.44257,-1.20332 1.3771,-3.00792 v -18.04967 l -1.3771,-1.20333 v -12.03299 l 15.14674,-19.25259 1.37704,-7.21962 2.75409,-4.81331 v -10.82967 l -3.44257,-4.2113 c -2.60108,-1.73794 -6.7318,-2.13919 -12.39307,-1.20334 -0.6885,1.40377 -2.52428,1.805 -5.50777,1.20334 l -2.06558,1.80501 0.68855,1.80465 -3.44263,-0.60169 c 1.6064,-0.73506 2.06554,-2.13882 1.37704,-4.21131 l -14.4586,1.20334 c -4.43685,1.33709 -7.87947,3.54294 -10.32747,6.61798 l -5.50819,10.82962 -2.75371,19.25261 -4.81965,4.21168 -20.65492,10.82963 -4.13114,1.20333 h -6.88485 l -2.06556,-1.80501 c 0.68853,-2.60712 0.22936,-4.21166 -1.37706,-4.81335 v -6.01628 l 4.81926,-6.61796 19.27828,-4.81334 6.19632,-4.21165 -2.7537,-3.60965 v -2.40667 l 6.19632,-6.61799 c 7.29816,-3.24912 13.49452,-7.46042 18.58976,-12.63461 l 6.19631,-9.02464 2.06558,0.60166 -6.88484,8.42298 2.06517,0.60166 6.88521,-2.40667 8.95044,-5.41501 -2.06559,-1.80462 -7.57335,-0.60167 13.08157,-0.60167 1.37703,-1.20333 15.14711,-1.20333 8.26188,-2.40667 5.50783,-3.61 15.14711,-6.0163 7.5738,-6.61798 -1.37709,-15.64295 -1.37705,-1.20334 v -3.60999 l -1.37702,-1.20297 v -3.61001 l -1.37706,-1.20333 v -3.61 l -4.13113,-10.82963 v -4.81297 l -1.37668,-1.20334 v -3.60999 l -2.75408,-6.01631 v -4.81334 l -1.37704,-1.20332 v -6.0163 l -1.37705,-1.20332 V 450.827 l -1.37704,-1.20332 v -7.21964 l -1.37708,-1.20333 -1.37705,-12.03296 -1.37705,-1.20334 -2.75368,-31.28557 -5.50822,-10.82963 -1.37705,-12.03297 -1.37704,-1.20334 v -3.61 l -5.5078,-12.03261 v -3.60999 l -4.13112,-10.82964 -17.90082,-31.28557 -1.37705,-6.01666 c -2.88033,-2.69724 -4.71653,-6.30722 -5.50817,-10.82964 l -15.14713,-18.04927 -5.50782,-10.82963 -8.26228,-10.82964 -25.47459,-23.46427 -9.63893,-6.0163 h -2.75409 l -4.13074,-3.61 h -2.75409 l -2.75411,-2.40666 -19.27787,-8.42297 -8.26228,-2.40668 c -2.29495,-0.80209 -2.75369,-1.60456 -1.37705,-2.40666 z m 8.2924,1.26607 v 1.08148 z m 1.23761,1.08148 v 1.44197 l 9.90089,3.60497 h 9.48837 c 0.54991,1.20152 2.33784,1.56202 5.36298,1.08149 1.10023,1.68242 2.06268,1.68242 2.88776,0 l 5.36298,2.52346 11.13851,1.08148 4.12537,2.52346 13.61373,2.16299 4.12538,2.52345 11.13849,2.52347 4.12537,2.16297 12.37611,3.60495 2.88779,2.52346 5.36295,1.08149 9.90091,6.12842 18.97669,8.29139 19.3893,13.33832 4.12538,1.08148 30.52775,25.23467 h 2.06266 v 1.80246 l 13.61374,12.25685 23.51461,27.75813 v 2.16296 l 4.12538,3.60496 5.363,10.81485 11.13848,15.86179 8.25074,21.6297 2.47524,3.60496 v 3.60495 l 4.12535,8.29139 4.12542,18.02475 1.6501,1.44199 v 3.60495 l 1.23764,1.08149 1.23759,14.4198 2.88777,3.60494 v 55.51624 c -1.92529,0.721 -1.92529,1.44199 0,2.16299 0.82512,4.32593 -0.13735,7.20989 -2.88777,8.65187 v 10.81486 l -2.47523,5.76793 v 5.04692 l -1.6501,1.08149 -1.23766,9.73336 -2.88776,3.60495 v 4.68644 l -4.12535,7.2099 -4.12538,13.33835 -2.47522,2.52347 v 3.60494 l -14.02627,25.23466 -2.47522,2.16295 v 2.52347 l -14.02627,16.94328 -2.47522,5.76793 -15.26387,15.86182 c 0.54993,1.68239 -0.13739,2.28299 -2.0627,1.80243 l -7.42567,7.93091 c 0.54993,1.92247 -0.41251,2.52344 -2.88775,1.80243 v 2.16301 h -2.0627 l -11.55103,10.45434 v 1.80251 h -2.06267 l -22.27701,16.5828 c -2.47522,-0.48056 -3.16294,0.36042 -2.06271,2.52343 h -3.30029 l -15.26388,10.81484 -13.61375,6.12846 -2.88774,2.16294 -8.25074,1.44201 -1.23762,1.08144 H 449.413 v 7.20996 c 4.6753,-0.48061 8.11336,-2.52352 10.31341,-6.12846 l 18.15163,-7.20989 39.6036,-26.31614 3.71286,-4.32595 6.18803,-3.96544 22.68956,-19.82724 c 3.85021,-6.24851 8.93843,-11.53584 15.26387,-15.8618 l 8.25074,-13.33834 10.72597,-12.9778 v -2.52348 l 8.25074,-10.81486 2.88778,-8.29136 5.36297,-8.65192 5.77552,-15.50127 2.47521,-3.60495 v -3.60495 l 2.88776,-3.60495 v -3.60495 l 2.88776,-3.60497 v -7.20989 l 2.47523,-3.60495 v -6.12841 l 2.88777,-7.20991 v -4.68642 l 1.23758,-1.442 v -49.38783 l 1.65018,-1.08148 -1.65018,-1.08149 v -26.67664 c -1.92529,-0.96144 -2.33781,-3.3645 -1.23758,-7.2099 l -1.23758,-1.08148 v -6.12842 l -1.65019,-1.0815 v -6.12841 l -1.23759,-1.08149 -1.23764,-9.73337 -2.88776,-2.16296 v -5.04694 l -5.36297,-14.41981 -4.12538,-6.12841 v -3.60495 l -12.3761,-23.79269 -8.25075,-10.81484 v -2.52347 l -11.13849,-14.41981 -8.25074,-7.2099 -4.12538,-7.20991 -5.363,-4.68643 c 0.54992,-2.16297 -0.41251,-2.76392 -2.88775,-1.80249 v -1.80245 l -16.50147,-15.86181 -17.32657,-13.6988 -19.38927,-12.25683 -6.60059,-5.76793 -44.14148,-21.62971 h -2.88779 l -16.50148,-7.2099 h -4.12535 l -2.88778,-2.52346 c -5.50035,0 -9.62572,-1.20154 -12.37611,-3.60496 h -5.363 l -4.12536,-2.52347 h -5.36299 l -12.37611,-3.60496 h -5.77552 l -1.2376,-1.08147 H 361.9551 l -1.2376,-1.0815 h -7.01314 z m 143.15043,205.84273 -0.41252,11.53585 1.23759,1.08149 v 8.29138 l 2.88779,6.12842 v 8.29137 l 1.23758,1.44199 v 11.89635 l 1.23764,1.08149 v 5.04692 l 2.88773,6.12842 v 4.68642 l 4.12538,10.81487 v 3.60495 l 1.23763,1.08148 1.65016,9.73337 2.47522,4.68643 1.65015,9.73336 1.23758,1.0815 v 7.20991 l 0.82507,0.72098 3.3003,-2.88395 -2.88774,-6.12844 1.65016,-3.60495 -4.12537,-9.73334 v -4.68645 l -4.12537,-8.29139 V 486.967 l -1.65016,-1.08148 -1.23763,-9.73337 -1.23758,-1.08148 -1.65016,-13.33832 -2.47522,-5.04693 v -5.76793 c -1.92532,-0.96144 -1.92532,-1.80246 0,-2.52346 l -1.65015,-2.52347 v -7.2099 l -2.47522,-5.76792 v -6.12841 l -1.65015,-1.08149 v -5.04694 l -1.23764,-1.08149 z m 23.51464,114.27695 v 1.08149 z m -1.23764,4.68644 -0.82507,1.80247 h 1.23763 z m -1.65015,2.52347 v 1.08148 z m -1.23758,1.08148 v 1.44199 z m -2.88778,1.44199 -2.47522,2.16298 h -2.88774 l -11.13853,5.04692 -6.60062,4.68643 -12.37611,3.60496 h -8.25075 l -2.06266,1.80247 6.18804,0.72098 1.23762,1.08151 c 0.82508,-1.44199 2.61259,-1.80249 5.36297,-1.08151 l 2.88778,-2.52345 h 2.88775 l 4.12536,-2.52346 h 2.47523 l 11.13854,-5.76793 h 2.88775 l 4.12537,-3.60495 h 3.30029 l 1.23764,-3.24446 z m -50.74207,18.02474 v 1.08151 z m -28.8776,15.50132 -14.43882,9.01234 c -1.10026,3.60499 -0.41255,5.88797 2.06268,6.84941 h 2.06268 v -3.60494 h 2.06269 l 9.07584,-10.45435 z m 54.86741,8.65188 -3.30028,7.57039 0.82507,4.32594 3.30029,-7.93088 z m -4.12538,11.89633 -4.53787,7.93088 -8.25074,8.29139 -2.8878,6.12843 2.06272,2.88398 c 0.54991,-3.60495 2.20006,-6.2485 4.95044,-7.93093 v -2.16296 l 4.12538,-1.80245 v -3.24447 l 5.36297,-5.76793 z m -71.36892,2.52345 -2.88777,1.08149 c -0.82506,1.68243 -1.7875,1.68243 -2.88774,0 l -1.23763,1.08151 -9.48835,1.44197 -6.18805,7.57038 1.23761,8.6519 4.12537,1.80245 c -0.54992,-2.16294 -0.13737,-3.60494 1.23761,-4.32594 v -7.20987 l 6.18807,-5.40741 c 5.50035,-0.24049 9.48835,-1.68243 11.96357,-4.32598 z m 17.7391,40.73592 v 1.08151 l 3.71286,-0.36049 z m -46.6167,7.20997 -8.25074,3.60495 c -2.75039,0.48048 -3.98799,2.28299 -3.71284,5.4074 l 7.8382,6.84938 10.72598,4.68644 9.90088,1.08151 1.23762,1.44202 3.30031,-0.72101 -10.31345,-2.88401 -6.60059,-3.60495 -6.18806,-5.40738 v -3.60495 l 8.25075,-6.12846 z m 52.39223,0 -2.06267,1.80245 4.53788,1.8025 2.06272,-0.72101 z m 21.86448,4.68639 c -1.10024,2.40345 -3.16294,3.24452 -6.18808,2.52352 l 1.23763,6.84939 7.01311,11.89634 v 8.29139 l -2.88774,3.60495 -2.4752,9.73334 -5.77552,9.7334 v 1.80244 h 4.12535 v -3.24444 l 2.88774,-3.60494 v -2.16302 l 2.88779,-3.60494 v -3.60494 l 2.47521,-2.52345 c -0.5499,-2.6435 0,-4.2059 1.65017,-4.68639 l -1.65017,-1.44201 v -11.89634 l -2.47521,-3.60495 -1.65016,-8.29139 -1.23763,-1.442 3.3003,-1.80244 c 1.375,-0.72102 0.96248,-1.56207 -1.23759,-2.52352 z m -161.1325,21.83737 h 8.26186 l 4.13115,1.2033 4.13116,2.4067 9.63893,2.40669 5.50819,3.60959 h 2.75369 l 6.88526,3.61 8.26187,1.20332 8.26229,3.61001 h 4.13074 l 11.01599,4.81298 6.88523,1.20338 24.78607,19.2526 4.13073,2.40662 h 2.75411 l 6.19672,5.41499 c 0.08,6.34724 2.37497,10.75935 6.88482,13.23595 l -3.4422,0.60173 -4.13116,-2.4067 -2.75409,2.4067 h -9.63893 l -12.39303,3.60994 -16.52418,1.20337 -1.37703,1.20332 -15.14714,1.20331 -4.81928,1.80462 15.14714,1.20331 -17.2127,1.80504 v -1.20331 l 2.06556,-0.60173 c -0.91788,-2.00541 -3.44261,-2.60671 -7.57375,-1.8046 l -5.50778,2.40633 h -26.16313 c -0.91789,-1.60425 -1.83621,-1.60425 -2.7541,0 l -17.9008,-1.20331 -8.26231,-2.40635 h -17.9008 l -2.75411,-2.40663 -16.52417,-1.20337 -4.13074,-2.40663 h -4.13115 l -13.77008,-4.81297 h -4.13115 l -8.26188,-2.4067 -7.57336,-6.61829 c 0.61179,-2.10569 -0.3061,-2.70735 -2.75409,-1.80462 l -2.06559,3.60959 -2.06555,-0.60166 2.75408,-3.60965 v -14.43963 l 1.37706,-3.61002 3.44221,-3.00793 c 6.25075,-0.95567 11.2998,-2.96114 15.14712,-6.0167 h 2.7541 l 8.26188,-4.81298 6.88525,-1.2033 12.39304,-6.01672 8.26187,-1.20331 1.37705,-1.20331 h 5.50821 l 5.50778,-2.40628 h 5.50819 l 4.13073,-2.40669 h 4.13114 z m -6.77016,2.31583 -8.25075,3.60493 -20.62685,3.60495 -7.83821,3.24452 3.71283,1.80244 16.50148,-5.04696 h 6.60061 l 4.12538,-2.16294 h 5.77551 l 4.12537,-2.5235 h 5.36299 l 1.23761,-1.08144 6.18806,-0.72101 z m -38.77851,10.81484 v 1.442 z m -20.62686,7.20996 c -2.20005,0.96138 -2.61261,1.80244 -1.23761,2.52343 2.75038,0.48049 4.40053,-0.12004 4.95045,-1.8025 z m -2.47522,2.52343 v 1.08152 z m -5.77552,1.08152 c -1.375,0.96137 -0.82507,1.80244 1.65015,2.52343 l 2.06269,-1.80251 z m -7.01313,2.52343 -2.06268,1.80244 2.06268,1.80251 3.71283,-2.88394 z m -6.60061,2.52345 -3.71282,1.0815 -1.23761,2.88394 c 0.54992,1.68246 2.20006,2.283 4.95043,1.80252 l 4.53793,-5.40746 z m -24.87433,-134.88214 6.88525,6.0163 11.01597,6.01667 8.26188,2.40631 h 6.88485 l 8.26229,2.40666 2.06557,1.805 c 1.37664,3.50944 0.68811,4.91354 -2.06557,4.21165 l -11.01598,-6.01665 -8.2623,-1.20332 -6.88484,-3.60965 h -2.75409 l -4.13115,-2.40664 h -5.50777 l -1.37705,-1.20337 -1.37706,1.20337 -2.06557,-0.60169 c 1.03258,2.67379 0.34405,3.67668 -2.06558,3.00833 l 0.68853,-1.80501 v -4.81332 z m -1.37706,0 0.68853,1.805 -2.75409,3.60964 c 0.91789,3.2088 0.45916,5.21459 -1.37705,6.01665 l 2.7541,0.60168 0.68851,-3.61001 4.13117,1.20337 h 5.50777 l 13.77008,6.01629 8.2623,1.20332 2.75369,2.40668 10.32786,3.60997 0.68853,-3.60997 5.50778,6.01665 c 7.02263,1.48415 12.30145,4.49215 15.83566,9.02463 l 1.37704,6.01632 5.50779,7.21961 1.37705,6.01667 -1.37705,3.00836 h -3.44221 l -6.88524,-3.61 h -6.88484 l -4.13114,2.40664 -9.63894,-9.62629 -6.88524,-2.40666 -38.55615,-24.06593 h -2.06516 l -1.37705,-3.00831 v -3.60967 l 4.13074,-10.82964 z m -0.15098,17.00025 -0.41254,1.80247 c 0.82508,1.9225 1.65015,2.28301 2.47523,1.08146 z m 5.77552,4.68644 v 1.08148 z m 2.47522,1.08148 -0.41254,0.721 3.30031,2.88395 2.06269,-0.36049 z m 40.01611,2.52346 v 1.08149 z m -34.24059,1.08149 -0.82506,0.72099 3.30029,2.88394 11.13851,7.20992 18.15163,8.65188 6.6006,8.29141 6.18806,-4.32595 z m 35.89074,0 c 0,2.16298 1.78753,3.3645 5.36298,3.60493 l 9.48837,8.65189 0.82507,-0.72097 -1.23761,-5.40745 h -2.06269 l -7.01314,-4.68642 z m 18.97671,19.46673 -2.06268,3.60494 -4.12538,0.36052 7.83822,5.40741 3.30029,-1.80247 z m 19.38555,-403.21815 6.88524,1.20334 c 0.91789,-1.60456 1.83578,-1.60456 2.75368,0 l 9.63936,-1.20334 v 1.20334 l -5.50822,2.40666 h -5.50777 c -0.68853,-1.40376 -2.52473,-1.805 -5.50819,-1.20334 l -5.50821,2.40668 -9.63893,7.21964 -12.39302,6.01666 -20.65492,16.84593 c -7.69876,2.89875 -13.89549,7.1104 -18.58975,12.63464 l -15.14671,18.04927 -12.39345,12.03297 -6.88483,8.42296 v 2.40667 l -2.75411,3.61 -13.77006,14.43963 -4.13074,8.42297 -8.26231,10.82963 -1.37705,7.21964 -4.13071,6.01666 v 2.40631 l -17.90125,27.67595 v 3.60998 l -6.88482,13.23595 -1.37706,9.62665 -1.37704,1.20297 v 25.26928 l -1.37705,1.20334 v 16.84592 l -1.37705,1.20334 v 14.43963 l -1.37706,1.20335 v 46.92852 c -1.83618,0.8021 -2.29494,2.80753 -1.37704,6.0163 l 1.37704,1.20334 v 7.21963 l 4.81969,4.21167 22.03195,9.62629 8.26189,1.20334 7.57377,5.41464 -1.37704,6.01666 -4.13117,3.61 -12.39302,18.04927 v 8.42298 l 9.63934,10.82962 v 8.42298 l -2.75408,4.81333 c 0.61178,3.3425 0.15304,5.74919 -1.37707,7.21961 l 1.37707,1.20337 v 6.01666 l 2.75408,6.61795 4.81926,1.20334 c 5.90959,-2.45675 10.72927,-5.86597 14.45861,-10.22798 l 4.81967,-5.41498 h 2.06516 c -1.03258,-2.13917 -0.34405,-2.94128 2.06557,-2.40631 0.9179,-2.40666 3.67201,-3.20875 8.26229,-2.40666 l 18.58934,11.43131 4.81968,5.41461 23.40901,10.82967 5.50778,1.20332 13.77008,8.42298 h 2.75411 l 4.13115,2.40662 6.1963,1.20332 1.37705,5.41505 -4.81926,3.00794 h -5.50821 l -12.39301,3.61 h -5.50821 l -13.76966,4.81332 -15.14713,1.20331 -5.5082,2.40636 h -9.63892 l -1.37706,1.20332 c -0.68853,-1.40376 -2.52431,-1.80498 -5.50778,-1.20332 l -7.57377,-6.61795 -8.95041,-9.0247 c -3.67199,-3.20873 -9.18019,-4.81333 -16.52418,-4.81333 l -10.32746,7.82132 c -1.8362,2.00548 -2.29493,5.21454 -1.37705,9.62666 l 8.26188,15.64264 8.95082,9.02464 c 5.58452,1.53752 9.94504,4.14493 13.08157,7.8216 l -0.68852,11.43135 -2.0656,-4.81332 h -3.4426 l -5.50779,-2.40671 c -4.39558,-4.181 -9.90337,-7.38979 -16.52417,-9.62629 l -20.65493,-15.64259 h -2.06556 V 674.038 h -2.7541 c 1.03259,-2.13917 0.34405,-2.94126 -2.06558,-2.40662 -2.7541,-0.90232 -3.90176,-2.50692 -3.44262,-4.8134 l -4.130729,-1.80455 c 0.688526,-1.80504 0,-2.4067 -2.065576,-1.80504 l -2.065566,-3.61001 -4.131153,-1.80497 -2.065163,-3.00834 c -2.065587,0.60164 -2.754102,3.5e-4 -2.065587,-1.80463 l -16.524155,-16.84632 -8.261895,-12.03296 -4.131143,-3.60964 -9.638932,-16.84629 -2.754096,-2.40667 -5.508202,-9.62631 v -2.40664 l -2.753683,-2.40633 v -2.40665 l -4.131151,-6.01667 -1.37705,-6.01631 -5.507788,-9.6263 v -3.61001 l -2.754101,-7.21963 -2.754093,-3.60999 -1.37705,-10.82964 -2.754102,-3.60999 -1.377043,-12.03263 -2.753686,-6.01665 v -13.2363 l -1.377051,-3.60963 c 1.836203,-0.80211 1.836203,-1.60456 0,-2.40668 v -9.62629 l -1.37705,-1.20334 v -27.67591 l 1.37705,-1.20334 c -0.9178909,-3.20878 -0.4591529,-5.21421 1.377051,-6.01632 v -9.62629 l 1.377043,-1.20334 c -1.606823,-0.60166 -2.0655685,-2.20587 -1.377043,-4.81333 l 1.377043,-1.20297 v -7.21999 l 2.753686,-4.81297 v -7.22002 l 5.508202,-10.82961 v -3.60966 l 2.754093,-3.60998 v -3.60999 l 4.130738,-7.21964 v -3.61001 l 4.131151,-6.0163 4.131151,-12.03297 4.130731,-4.81333 2.754096,-7.21964 4.131154,-3.61 1.377048,-4.81298 4.13073,-3.60999 1.377058,-3.60999 13.770075,-18.04926 8.261874,-7.21965 v -3.00833 c 2.639409,0.40124 4.475626,-0.60167 5.508202,-3.00833 -0.459157,-2.40631 0.229371,-3.81008 2.065572,-4.2113 l 4.819265,-3.00834 2.065576,-3.00833 c 2.065566,0.60166 2.754092,0 2.065566,-1.80499 l 4.131153,-2.40631 -0.688525,-1.805 5.507775,-3.61001 h 2.06557 c -1.03258,-2.13918 -0.34405,-2.94127 2.06558,-2.40666 l 2.06558,-3.60963 4.13115,-1.80501 c -0.68854,-1.805 -4.2e-4,-2.40667 2.06516,-1.805 l 17.21269,-12.63462 c -0.68852,-1.80501 0,-2.40668 2.06559,-1.80501 l 16.52417,-9.6263 h 3.44222 c -1.03259,-2.13918 -0.34406,-2.94128 2.06557,-2.40666 l 17.90123,-8.42298 6.88481,-4.81297 h 2.75412 l 9.63892,-4.81333 11.01598,-2.40666 4.13114,-2.40666 h 4.13116 l 2.75369,-2.40631 h 4.13114 l 5.50819,-2.40667 h 10.32746 l 1.37705,3.00833 -8.95082,7.82132 -6.88483,4.81295 -4.13114,1.20334 -11.70451,9.02501 c 0.61221,2.10564 -0.30569,2.70695 -2.75369,1.80463 v 2.40666 h -2.06558 l -10.32744,11.43131 -2.75411,6.01666 0.68852,0.6013 3.44222,-3.00797 5.50819,-7.22 15.83566,-15.04093 12.39302,-7.22001 16.52377,-13.23593 16.52418,-8.42333 7.57337,-5.41464 -3.44221,-0.60167 c -1.14769,1.80501 -3.90178,2.20587 -8.2623,1.20334 l -4.13075,2.40668 h -6.88523 l -8.26188,3.60962 -9.63895,1.20334 -4.13114,2.40667 h -2.7541 l -2.75409,2.40665 h -5.50779 l -5.5082,2.40667 h -4.13074 l -2.7541,2.4063 h -2.75409 l -6.88484,3.61 h -4.13113 c -4.04575,3.28303 -9.0948,5.68969 -15.14714,7.21964 l -16.52375,9.62631 -6.88527,2.40666 -13.77007,9.62629 -4.13115,1.20334 -41.998334,34.2939 -18.589761,21.05761 -0.688518,-1.80501 c 3.351031,-1.7246 5.186833,-4.3317 5.508181,-7.8213 2.448015,0.90232 3.365906,0.30066 2.754116,-1.80499 l 19.966379,-19.85428 4.819678,-3.00832 c -0.459165,-2.40631 0.229371,-3.81008 2.065566,-4.21131 l 4.130743,-1.20334 17.90121,-14.43963 16.52378,-10.82963 11.01639,-4.81297 6.88483,-4.81334 9.63893,-3.60999 2.75411,-2.40631 9.63892,-3.60998 2.7541,-2.40667 h 2.75411 l 13.77007,-6.01631 8.26189,-1.20334 20.6549,-7.21999 h 4.13115 l 9.63893,-3.60962 h 6.88526 l 5.50778,-2.40669 12.39302,-1.20334 z m -84.15389,63.63173 -8.66327,10.45436 0.41253,1.80247 10.31343,-10.45435 c 0.82508,-1.68244 0.13737,-2.28302 -2.06269,-1.80248 z m -9.48835,12.25683 -2.06268,2.88395 c 0.82507,1.20154 1.78753,0.84104 2.88776,-1.08146 z m -4.12536,3.60495 -2.06269,2.88396 c 0.82507,1.20153 1.78751,0.84104 2.88776,-1.08149 z m -2.88777,5.76793 v 1.44198 z m -2.47523,2.52346 -4.95044,5.40743 0.82506,1.80247 6.18807,-6.4889 z m -5.77551,7.2099 v 1.44197 z m -1.23761,1.44197 v 1.0815 z m -1.23762,1.0815 -3.71284,4.32595 0.82508,0.36048 3.3003,-2.88395 z m -4.12538,4.68643 -7.8382,9.01238 v 2.52347 l -4.12538,3.60495 0.82509,4.32594 7.42567,-10.45436 1.65015,-4.68643 2.47521,-2.52346 z m -31.76535,54.07428 -0.82508,1.80248 h 1.65016 z m -1.65016,2.52346 -3.3003,2.88397 -7.01313,13.33832 -1.23761,8.65188 -4.12538,5.76792 v 6.12842 l -1.2376,3.60495 v 10.81485 l 1.2376,1.08149 -1.2376,1.44198 v 10.81485 l -1.650152,1.0815 v 22.71118 c -1.650142,0.96144 -1.650142,1.80248 0,2.52346 l -2.475207,4.68644 v 21.99021 l 1.237603,1.08147 -1.237603,2.52348 v 33.52603 l 2.062679,2.88397 0.412528,-23.43218 1.650152,-1.08149 c 0.82507,-3.1244 0.27516,-5.16697 -1.650152,-6.12841 v -25.23465 c 2.200072,-0.96144 2.750402,-3.36451 1.650152,-7.20991 l 1.2376,-1.08147 v -19.46675 l 1.23762,-1.08149 v -11.89633 l 1.65016,-1.44198 v -23.79269 l 4.12536,-9.73336 v -3.60496 l 5.36298,-9.73337 1.23761,-7.20989 2.88777,-3.60496 z m -17.7391,160.05984 v 1.08149 z m 1.23761,2.52347 v 1.08148 z m 1.65015,1.08148 -0.82508,0.721 4.95046,3.96544 12.37612,6.12842 8.25074,2.52347 2.88776,2.16297 c 3.02513,-0.72099 4.12538,-0.12006 3.3003,1.80247 l 6.18806,4.32594 c 2.75038,-0.48053 3.85021,-2.28302 3.30029,-5.40742 l -6.18807,-4.32593 h -4.12536 l -10.72596,-4.68645 -7.01314,-1.0815 z m 66.83104,79.30894 v 1.80246 l 22.68953,14.05933 0.41254,-1.80247 -12.78865,-10.45434 -7.01313,-3.60498 z m 23.92715,15.86179 v 1.08147 z m 1.23761,1.08147 v 1.08152 l 2.06268,-0.36052 z m -49.50446,2.52346 v 1.08152 z m 53.62984,0 v 1.08152 z m 1.65014,1.08152 -0.82507,0.72096 3.3003,1.80246 3.71282,-0.72095 z m 6.6006,2.52342 -0.41255,0.36053 4.53792,3.24447 2.06269,-0.72101 c -0.27517,-2.40341 -2.33786,-3.3645 -6.18806,-2.88399 z m 11.1385,4.68642 c -1.10024,0.72102 -0.54991,1.08151 1.65015,1.08151 l 2.06269,0.72101 c 0.54992,-2.16301 -0.68771,-2.76389 -3.71284,-1.80252 z m 5.77552,2.52353 v 1.08143 z m 1.23761,1.08143 v 1.08158 l 2.06269,-0.36058 z m 19.80179,10.81492 v 3.60494 c 3.57546,0.96138 5.91291,0.3605 7.01313,-1.8025 -1.10022,-1.92251 -3.43767,-2.52346 -7.01313,-1.80244 z m -66.83103,14.41977 -0.41254,2.52346 4.12537,-0.72102 z"
     id="path1-3"
     style="fill:#10b981;fill-opacity:1;stroke-width:0.385642" /></svg>
