<?xml version="1.0" encoding="UTF-8" standalone="no"?>
<svg
   viewBox="0 0 576 576"
   version="1.1"
   id="svg2"
   width="576"
   height="576"
   sodipodi:docname="pixelfed.svg"
   inkscape:export-filename="pixelfed.svg"
   inkscape:export-xdpi="96"
   inkscape:export-ydpi="96"
   xmlns:inkscape="http://www.inkscape.org/namespaces/inkscape"
   xmlns:sodipodi="http://sodipodi.sourceforge.net/DTD/sodipodi-0.dtd"
   xmlns:xlink="http://www.w3.org/1999/xlink"
   xmlns="http://www.w3.org/2000/svg"
   xmlns:svg="http://www.w3.org/2000/svg">
  <sodipodi:namedview
     id="namedview1"
     pagecolor="#ffffff"
     bordercolor="#000000"
     borderopacity="0.25"
     inkscape:showpageshadow="2"
     inkscape:pageopacity="0.0"
     inkscape:pagecheckerboard="0"
     inkscape:deskcolor="#d1d1d1" />
  <defs
     id="defs2">
    <clipPath
       clipPathUnits="userSpaceOnUse"
       id="clipPath3">
      <use
         x="0"
         y="0"
         xlink:href="#g1"
         id="use3" />
    </clipPath>
  </defs>
  <g
     id="g2"
     style="fill:#ffffff;fill-opacity:0.963736;stroke:#000000;stroke-opacity:1"
     transform="matrix(12.576232,0,0,13.081132,179.14566,106.67923)">
    <g
       id="g3"
       clip-path="url(#clipPath3)"
       style="fill:#ffffff;fill-opacity:0;stroke:#ffffff;stroke-opacity:1"
       transform="matrix(1.2626511,0,0,1.2815864,-3.0195459,-4.4898748)">
      <g
         inkscape:label="Clip"
         id="g1"
         style="fill:#ffffff;fill-opacity:0;stroke:#ffffff;stroke-opacity:1">
        <path
           d="m 8.9074002,-1.9858963 c 9.4727208,0 17.1514038,7.3410142 17.1514038,16.3971723 0,9.056159 -7.678683,16.397172 -17.1514038,16.397172 -9.47272042,0 -17.151404,-7.341013 -17.151404,-16.397172 0,-9.0561581 7.67868358,-16.3971723 17.151404,-16.3971723 z m 0,3.2794346 c -7.5774903,0 -13.7211232,5.8734672 -13.7211232,13.1177377 0,7.244271 6.1436329,13.117738 13.7211232,13.117738 7.5774908,0 13.7211238,-5.873467 13.7211238,-13.117738 0,-7.2442705 -6.143633,-13.1177377 -13.7211238,-13.1177377 z m 1.7683098,6.721201 c 2.938035,0 5.318651,2.2054197 5.318651,4.9273507 0,2.72193 -2.380616,4.927349 -5.316936,4.927349 H 7.5575847 L 3.1067954,21.921182 V 10.856369 c 0,-1.5692091 1.3738274,-2.8416297 3.0701012,-2.8416297 z"
           id="path2"
           style="fill:#ffffff;fill-opacity:0;stroke:#ffffff;stroke-width:1.677;stroke-opacity:1" />
      </g>
    </g>
  </g>
</svg>
