<?xml version="1.0" encoding="UTF-8" standalone="no"?>
<svg
   viewBox="-564.253 -646.857 2236146.5 2252304.6"
   version="1.1"
   id="svg1"
   sodipodi:docname="logomark.svg"
   inkscape:export-filename="../astro-landing-page/src/icons/logomark.svg"
   inkscape:export-xdpi="96"
   inkscape:export-ydpi="96"
   inkscape:version="1.3 (0e150ed6c4, 2023-07-21)"
   width="2236146.5"
   height="2252304.5"
   xmlns:inkscape="http://www.inkscape.org/namespaces/inkscape"
   xmlns:sodipodi="http://sodipodi.sourceforge.net/DTD/sodipodi-0.dtd"
   xmlns="http://www.w3.org/2000/svg"
   xmlns:svg="http://www.w3.org/2000/svg">
  <defs
     id="defs1" />
  <sodipodi:namedview
     id="namedview1"
     pagecolor="#ffffff"
     bordercolor="#000000"
     borderopacity="0.25"
     inkscape:showpageshadow="2"
     inkscape:pageopacity="0.0"
     inkscape:pagecheckerboard="0"
     inkscape:deskcolor="#d1d1d1"
     inkscape:export-bgcolor="#ffffff04"
     inkscape:zoom="0.4097902"
     inkscape:cx="746.72356"
     inkscape:cy="750.38397"
     inkscape:window-width="1600"
     inkscape:window-height="819"
     inkscape:window-x="0"
     inkscape:window-y="0"
     inkscape:window-maximized="1"
     inkscape:current-layer="svg1" />
  <path
     d="m 251.09389,-562.01169 h 21.103 l 12.05796,5.98465 h 33.16096 l 15.07267,5.98466 h 12.05886 l 3.01472,2.99232 33.16096,5.98465 72.35044,23.93771 27.13153,14.96073 18.08739,5.98464 27.13153,17.95306 33.16096,14.96162 66.32192,47.87541 91.94609,88.2709 54.26306,71.81311 18.08738,35.907 15.07268,20.94538 24.11681,53.86007 3.01472,14.96073 6.02943,8.97697 18.08738,53.86006 3.01472,23.9377 3.01471,2.99233 v 14.96162 l 3.01472,2.99233 3.01471,26.9300276 3.01472,2.991428 V 25.961367 l 3.01471,2.992324 V 181.55688 l -3.01471,2.99233 v 38.89932 l -9.04415,26.93003 v 11.96841 l -3.01471,2.99231 -3.01472,23.93771 -12.05795,26.93003 -12.05886,41.89166 -30.14625,65.82846 -60.29159,95.75171 c -12.25935,9.77391 -22.3078,21.74321 -30.14624,35.9061 l -67.82928,67.32553 -78.37987,59.8447 -46.72628,25.43387 -1.50735,4.48848 c -3.01472,-4.9869 -6.02943,-3.99006 -9.04415,2.99233 l -18.08738,8.97608 -1.50736,-13.46456 -12.05886,-23.93771 v -17.95395 l 15.07357,-29.92235 9.04324,-26.93003 v -26.93003 l -15.07267,-35.90611 -10.5515,-10.47314 -9.04324,-2.99232 h -27.13153 l -3.01471,2.99232 h -18.08829 l -16.58003,16.45689 -6.02943,11.96931 v 8.97697 l -7.53679,10.47224 -30.14534,-5.98375 c -16.98283,-7.0819 -31.55335,-16.55729 -43.71246,-28.42619 l -3.01472,-11.9693 10.55151,-10.47314 18.08738,-8.97608 15.07358,-2.99232 c 3.71826,-7.28181 10.752,-11.27098 21.1021,-11.96931 l 3.01471,2.99233 h 18.08739 l 15.07357,-5.98465 36.17477,-2.99233 7.53679,2.99233 c 2.96865,15.59631 10.50544,27.5656 22.60946,35.907 h 12.05886 l 12.05795,-8.97697 c 1.50736,3.49164 5.52728,4.48849 12.05886,2.99232 l 7.53679,-2.99232 3.01471,-7.47992 v -44.88398 l -3.01471,-2.99232 v -29.92235 l 33.16005,-47.87541 3.01472,-17.95306 6.02943,-11.96929 v -26.93004 l -7.53679,-10.47224 c -5.69436,-4.32174 -14.7376,-5.31949 -27.13153,-2.99232 -1.50736,3.49075 -5.52637,4.48848 -12.05795,2.99232 l -4.52208,4.48849 1.50736,4.48759 -7.53679,-1.49616 c 3.51687,-1.82785 4.52208,-5.31859 3.01472,-10.47224 l -31.6536,2.99232 c -9.71338,3.32491 -17.25017,8.81024 -22.60946,16.45689 l -12.05886,26.93003 -6.02853,47.87541 -10.5515,10.47314 -45.21891,26.93002 -9.04415,2.99233 H 356.6062 l -4.52207,-4.48849 c 1.50736,-6.48307 0.50215,-10.47313 -3.01472,-11.96929 v -14.96073 l 10.5506,-16.4569 42.20511,-11.9693 13.56531,-10.47313 -6.02853,-8.97608 v -5.98465 l 13.56532,-16.45689 c 15.97762,-8.07964 29.54294,-18.55188 40.69774,-31.41852 l 13.56532,-22.44154 4.52207,1.49616 -15.07267,20.94538 4.52117,1.49616 15.07357,-5.98465 19.59474,-13.46546 -4.52207,-4.48759 -16.58003,-1.49616 28.63889,-1.49616 3.01472,-2.99233 33.16096,-2.99232 18.08738,-5.98466 12.05796,-8.97697 33.16096,-14.96073 16.58093,-16.45689 -3.01472,-38.89933 -3.01471,-2.99232 v -8.97698 l -3.01472,-2.99143 v -8.97697 L 617.37,184.54921 v -8.97698 l -9.04414,-26.93003 v -11.9684 l -3.01382,-2.99233 v -8.97697 l -6.02943,-14.96073 V 97.774479 l -3.01471,-2.99233 v -14.96073 l -3.01472,-2.992316 v -29.92236 l -3.01471,-2.99232 V 25.961367 l -3.01472,-2.992326 -3.01471,-29.9223544 -3.01471,-2.992324 -6.02853,-77.7977626 -12.05886,-26.93003 -3.01472,-29.92235 -3.01471,-2.99234 v -8.97697 l -12.05796,-29.92146 v -8.97698 l -9.04414,-26.93002 -39.18949,-77.79777 -3.01471,-14.96162 c -6.3058,-6.70719 -10.32572,-15.68415 -12.05886,-26.93002 l -33.16096,-44.88309 -12.05796,-26.93003 -18.08829,-26.93003 -55.77041,-58.34854 -21.1021,-14.96073 h -6.02943 l -9.04324,-8.97698 h -6.02943 l -6.02943,-5.98465 -42.20421,-20.94537 -18.08828,-5.98466 c -5.02423,-1.99458 -6.02853,-3.99006 -3.01472,-5.98465 z m 18.15422,3.14831 v 2.68933 z m 2.70945,2.68933 v 3.58577 l 21.6756,8.96442 h 20.77245 c 1.2039,2.98784 5.11815,3.88429 11.74095,2.68933 2.4087,4.1837 4.51575,4.1837 6.32205,0 l 11.74095,6.2751 24.38505,2.68933 9.0315,6.27509 29.80396,5.37866 9.0315,6.2751 24.38505,6.27509 9.0315,5.37866 27.0945,8.96442 6.32205,6.2751 11.74095,2.68933 21.6756,15.23952 41.5449,20.61818 42.44805,33.16837 9.0315,2.68933 66.8331,62.75097 h 4.51575 v 4.48222 l 29.80396,30.47904 51.47955,69.02607 v 5.37865 l 9.0315,8.96443 11.74095,26.89327 24.38505,39.44348 18.063,53.78655 5.4189,8.96443 v 8.96442 l 9.0315,20.61818 9.0315,44.82212 3.6126,3.58577 v 8.96443 l 2.70945,2.68933 2.70945,35.857695 6.32205,8.964425 v 138.05213 c -4.215,1.79289 -4.215,3.58577 0,5.37866 1.8063,10.75731 -0.30075,17.92885 -6.32205,21.51462 v 26.89327 l -5.4189,14.34308 v 12.5502 l -3.6126,2.68932 -2.70945,24.20395 -6.32205,8.96442 v 11.65375 l -9.0315,17.92885 -9.0315,33.16838 -5.4189,6.2751 v 8.96442 l -30.7071,62.75098 -5.4189,5.37865 v 6.2751 l -30.7071,42.1328 -5.4189,14.34307 -33.41655,39.44348 c 1.2039,4.18369 -0.30075,5.67716 -4.51575,4.4822 l -16.2567,19.72174 c 1.20389,4.78073 -0.90315,6.2751 -6.32205,4.48221 v 5.37866 h -4.51576 l -25.2882,25.99683 v 4.48221 h -4.51575 l -48.7701,41.23636 c -5.4189,-1.19496 -6.92445,0.89644 -4.51575,6.27509 h -7.2252 l -33.41655,26.89328 -29.80395,15.23952 -6.32205,5.37865 -18.063,3.58578 -2.70945,2.68932 h -8.12835 v 17.92885 c 10.2354,-1.19496 17.76225,-6.27509 22.57875,-15.23952 l 39.7386,-17.92885 86.7024,-65.4403 8.12835,-10.75731 13.54725,-9.86087 49.67326,-49.30434 c 8.4291,-15.53803 19.56855,-28.68616 33.41655,-39.44346 l 18.063,-33.16838 23.4819,-32.27192 v -6.2751 l 18.063,-26.89328 6.32205,-20.61817 11.74095,-21.51463 12.6441,-38.54702 5.4189,-8.96443 v -8.96442 l 6.32205,-8.96443 v -8.96442 l 6.32205,-8.96443 v -17.92884 l 5.4189,-8.96443 v -15.23952 l 6.32205,-17.92885 v -11.65375 l 2.70945,-3.58577 V 88.368109 l 3.6126,-2.68933 -3.6126,-2.68932 V 16.652707 c -4.215,-2.390812 -5.11815,-8.3664974 -2.70945,-17.9288494 l -2.70945,-2.689327 V -19.20499 l -3.6126,-2.68933 v -15.23952 l -2.70945,-2.68933 -2.70945,-24.20395 -6.32205,-5.37866 v -12.55019 l -11.74095,-35.8577 -9.0315,-15.23952 v -8.96443 l -27.0945,-59.1652 -18.063,-26.89328 v -6.2751 l -24.38505,-35.8577 -18.063,-17.92885 -9.0315,-17.92885 -11.74095,-11.65375 c 1.2039,-5.37865 -0.90315,-6.87303 -6.32205,-4.48221 v -4.48221 l -36.12601,-39.44348 -37.9323,-34.06481 -42.44805,-30.47904 -14.4504,-14.34309 -96.63705,-53.78654 h -6.32205 l -36.126,-17.92885 h -9.0315 l -6.32205,-6.2751 c -12.0417,0 -21.0732,-2.98784 -27.09451,-8.96442 h -11.74095 l -9.0315,-6.2751 h -11.74095 l -27.0945,-8.96443 h -12.6441 l -2.70945,-2.68932 h -24.38505 l -2.70945,-2.68933 h -15.35355 z m 313.39306,511.86867 -0.90315,28.68616 2.70945,2.68933 V 7.6882816 l 6.32205,15.2395234 V 43.54598 l 2.70945,3.585775 v 29.582599 l 2.70945,2.689325 v 12.5502 l 6.32205,15.239511 v 11.65375 l 9.0315,26.89327 v 8.96443 l 2.70945,2.68933 3.6126,24.20394 5.4189,11.65376 3.6126,24.20394 2.70945,2.68933 v 17.92885 l 1.8063,1.79289 7.2252,-7.17154 -6.32205,-15.23953 3.6126,-8.96442 -9.0315,-24.20394 v -11.65376 l -9.0315,-20.61818 v -15.23952 l -3.6126,-2.68933 -2.70945,-24.20395 -2.70945,-2.68932 -3.6126,-33.168361 -5.4189,-12.5502 V 47.131755 c -4.215,-2.390815 -4.215,-4.482217 0,-6.2751 l -3.6126,-6.2751 V 16.652707 L 593.47897,2.3096276 V -12.92989 l -3.6126,-2.68933 v -12.5502 l -2.70945,-2.68932 z m 51.47955,284.17226 v 2.68932 z m -2.70945,11.65375 -1.8063,4.48221 h 2.70945 z m -3.6126,6.2751 v 2.68932 z m -2.70945,2.68932 v 3.58578 z m -6.32205,3.58578 -5.4189,5.37865 h -6.32205 l -24.38505,12.55019 -14.4504,11.65376 -27.0945,8.96442 h -18.063 l -4.51575,4.48221 13.54725,1.79288 2.70945,2.68934 c 1.8063,-3.58578 5.71965,-4.48222 11.74095,-2.68934 l 6.32205,-6.27509 h 6.32205 l 9.0315,-6.2751 h 5.4189 l 24.38505,-14.34308 h 6.32205 l 9.0315,-8.96443 h 7.2252 l 2.70945,-8.06797 z m -111.08745,44.82211 v 2.68934 z m -63.2205,38.54704 -31.61025,22.41105 c -2.40871,8.96443 -0.90315,14.6416 4.51575,17.03241 h 4.51575 v -8.96442 h 4.51575 l 19.8693,-25.99684 z m 120.11895,21.51461 -7.2252,18.82529 1.8063,10.75732 7.2252,-19.72174 z m -9.0315,29.58261 -9.93465,19.72173 -18.063,20.61818 -6.32205,15.23952 4.51575,7.17153 c 1.2039,-8.96441 4.8165,-15.53803 10.8378,-19.72173 v -5.37865 l 9.0315,-4.48221 v -8.06799 l 11.74095,-14.34307 z m -156.24496,6.27509 -6.32205,2.68933 c -1.8063,4.18369 -3.91334,4.18369 -6.32205,0 l -2.70945,2.68933 -20.77245,3.58577 -13.54725,18.82529 2.70945,21.51462 9.0315,4.48221 c -1.2039,-5.37865 -0.30075,-8.96442 2.70945,-10.75731 v -17.92885 l 13.54725,-13.44663 c 12.0417,-0.59793 20.77245,-4.1837 26.19136,-10.75732 z m 38.83546,101.298 v 2.68933 l 8.12835,-0.89644 z m -102.05596,17.92886 -18.063,8.96442 c -6.0213,1.19495 -8.73075,5.67717 -8.12835,13.44664 l 17.15985,17.0324 23.4819,11.65375 21.6756,2.68933 2.70945,3.58577 7.2252,-1.79288 -22.57875,-7.17154 -14.4504,-8.96443 -13.54725,-13.44664 v -8.96442 l 18.063,-15.23952 z m 114.70006,0 -4.51575,4.48221 9.93465,4.48221 4.51575,-1.79289 z m 47.86695,11.65375 c -2.4087,5.97658 -6.92445,8.06798 -13.54725,6.27509 l 2.70945,17.03241 15.35355,29.5826 v 20.61818 l -6.32205,8.96442 -5.4189,24.20395 -12.6441,24.20394 v 4.48222 h 9.0315 v -8.06798 l 6.32205,-8.96443 v -5.37866 l 6.32205,-8.96442 v -8.96442 l 5.4189,-6.2751 c -1.2039,-6.57361 0,-10.45879 3.6126,-11.65375 l -3.6126,-3.58577 v -29.5826 l -5.4189,-8.96442 -3.6126,-20.61819 -2.70945,-3.58576 7.2252,-4.48222 c 3.0102,-1.79288 2.10705,-3.88429 -2.70945,-6.27509 z M 148.5972,589.9958 h 18.08738 l 9.04415,2.99232 9.04414,5.98465 21.10211,5.98465 12.05885,8.97608 h 6.02853 l 15.07358,8.97698 18.08738,2.99232 18.08829,8.97697 h 9.04324 l 24.11682,11.96841 15.07357,2.99232 54.26306,47.87541 9.04324,5.98465 h 6.02943 l 13.56622,13.46546 c 0.17521,15.78367 5.19943,26.75523 15.07267,32.91379 l -7.53588,1.49615 -9.04415,-5.98464 -6.02943,5.98464 h -21.1021 l -27.13153,8.97698 -36.17567,2.99233 -3.01472,2.99233 -33.16096,2.99231 -10.5506,4.4876 33.16096,2.99232 -37.68303,4.48849 V 778.506 l 4.52207,-1.49617 c -2.00951,-4.9869 -7.53678,-6.48217 -16.58093,-4.48759 l -12.05795,5.98376 h -57.27778 c -2.00951,-3.98917 -4.01993,-3.98917 -6.02943,0 l -39.18949,-2.99233 -18.08829,-5.98376 H 79.261459 l -6.029429,-5.98464 -36.175676,-2.99233 -9.043241,-5.98465 h -9.044144 l -30.146248,-11.9684 h -9.04414 l -18.08739,-5.98466 -16.58002,-16.45778 c 1.33937,-5.23612 -0.67014,-6.73228 -6.02943,-4.48759 l -4.52208,8.97608 -4.52207,-1.49616 6.02943,-8.97608 v -35.907 l 3.01472,-8.97698 7.53588,-7.47992 c 13.68453,-2.37647 24.73818,-7.36337 33.16096,-14.96162 h 6.02943 l 18.0873842,-11.96841 15.0735738,-2.99232 27.13153,-14.96163 18.087386,-2.99232 3.014715,-2.99233 h 12.058859 l 12.057956,-5.98375 h 12.058865 l 9.04324,-5.98465 h 9.04414 z m -14.8216,5.75875 -18.063,8.96442 -45.157507,8.96442 -17.159851,8.06798 8.128351,4.48222 36.126002,-12.5502 H 112.1 l 9.0315,-5.37865 h 12.6441 l 9.0315,-6.2751 h 11.74095 l 2.70945,-2.68933 13.54725,-1.79288 z m -84.896109,26.89326 v 3.58578 z M 3.7219912,640.57667 c -4.8165003,2.39081 -5.7196503,4.48221 -2.7094503,6.27509 6.0213013,1.19496 9.6339011,-0.29851 10.8378001,-4.48221 z m -5.4189013,6.27509 v 2.68933 z m -12.6440989,2.68933 c -3.0102,2.39081 -1.8063,4.48221 3.6126,6.2751 l 4.5157499,-4.48221 z m -15.35355,6.2751 -4.51575,4.48221 4.51575,4.48221 8.12835,-7.17154 z m -14.4504,6.2751 -8.12835,2.68932 -2.70945,7.17154 c 1.2039,4.1837 4.8165,5.67717 10.8378,4.48222 l 9.93465,-13.44664 z m -54.45634,-335.41113 15.07358,14.96073 24.11681,14.96162 18.08739,5.98375 h 15.07267 l 18.0882899,5.98466 4.52207,4.48848 c 3.013812,8.72687 1.50645,12.21852 -4.52207,10.47314 l -24.1168199,-14.96162 -18.08828,-2.99233 -15.07268,-8.97608 h -6.02943 l -9.04414,-5.98465 h -12.05796 l -3.01471,-2.99232 -3.01472,2.99232 -4.522071,-1.49616 c 2.26059,6.64891 0.75323,9.14281 -4.52206,7.48081 l 1.50735,-4.48848 v -11.96931 z m -3.014711,0 1.50736,4.48848 -6.02943,8.97608 c 2.00951,7.97924 1.0052,12.96704 -3.01471,14.96163 l 6.02942,1.49616 1.50736,-8.97697 9.044141,2.99232 h 12.05796 l 30.14625,14.96073 18.08828,2.99233 6.02853,5.98465 22.6103599,8.97697 1.50736,-8.97697 12.0579543,14.96162 c 15.3743228,3.69065 26.9310298,11.17057 34.6683158,22.44154 l 3.014715,14.96073 12.057957,17.95306 3.014715,14.96162 -3.014715,7.48081 h -7.535884 l -15.073575,-8.97698 h -15.07267 l -9.044144,5.98466 -21.1020991,-23.9377 -15.0735799,-5.98466 -84.409291,-59.8447 h -4.52117 l -3.01471,-7.48081 v -8.97608 l 9.04323,-26.93004 z m -0.33055,42.27443 -0.90315,4.48222 c 1.8063,4.78072 3.612601,5.67717 5.418901,2.68932 z m 12.644101,11.65376 v 2.68932 z m 5.4189,2.68932 -0.90315,1.79289 7.2252,7.17154 4.51575,-0.89644 z m 87.6055502,6.2751 v 2.68933 z m -74.9614502,2.68933 -1.8063,1.79288 7.2252,7.17154 24.38505,17.92885 39.7385989,21.51462 14.4504011,20.61817 13.54725,-10.7573 z m 78.5740502,0 c 0,5.37865 3.9133488,8.36649 11.7409498,8.96442 l 20.77245,21.51462 1.8063,-1.79288 -2.70945,-13.44664 h -4.51575 l -15.35355,-11.65375 z m 41.5448998,48.40789 -4.51575,8.96443 -9.0315,0.89644 17.159851,13.44664 7.225201,-4.48222 z m 42.439924,-1002.68168 15.073575,2.99233 c 2.00951,-3.99006 4.01902,-3.99006 6.02853,0 l 21.10301,-2.99233 v 2.99233 l -12.05887,5.98465 h -12.05795 c -1.50736,-3.49075 -5.52728,-4.48848 -12.058865,-2.99233 l -12.058859,5.98466 -21.102101,17.95305 -27.131531,14.96163 -45.2189131,41.89075 c -16.8545899,7.2083 -30.4207999,17.68144 -40.6977499,31.41851 l -33.16005,44.88309 -27.132431,29.92235 -15.07267,20.94538 v 5.98466 l -6.02943,8.97697 -30.14624,35.907 -9.04324,20.94538 -18.08829,26.93003 -3.01472,17.95305 -9.04324,14.96163 v 5.98375 l -39.19039,68.8217 v 8.97696 l -15.07267,32.91379 -3.01471,23.9386 -3.01472,2.99143 v 62.8370326 l -3.01471,2.992324 V 34.937448 l -3.01472,2.992319 v 35.907008 l -3.01471,2.992328 V 193.52618 c -4.01992,1.99459 -5.02423,6.98149 -3.01472,14.96073 l 3.01472,2.99232 v 17.95306 l 10.5515,10.47314 48.23363,23.9377 18.08738,2.99232 16.58094,13.46457 -3.01472,14.96162 -9.04414,8.97698 -27.13153,44.88308 v 20.94538 l 21.103,26.93003 v 20.94537 l -6.02943,11.96931 c 1.33937,8.31181 0.33507,14.29646 -3.01471,17.95305 l 3.01471,2.99232 v 14.96163 l 6.02943,16.45689 10.5506,2.99233 c 12.93762,-6.10926 23.48913,-14.58692 31.6536,-25.43387 l 10.5515,-13.46546 h 4.52117 c -2.26058,-5.31949 -0.75322,-7.31408 4.52207,-5.98375 2.00951,-5.98466 8.03894,-7.97924 18.08829,-5.98466 l 40.696841,28.4262 10.5515,13.46456 51.24834,26.93003 12.0579599,2.99232 30.1462441,20.94539 h 6.029429 l 9.044145,5.98464 13.565314,2.99233 3.014715,13.46546 -10.550599,7.47992 H 40.071069 L 12.93954,566.05809 H 0.8806809 l -30.1453399,11.9693 -33.16096,2.99233 -12.05886,5.98375 h -21.1021 l -3.01472,2.99233 c -1.507351,-3.49075 -5.526371,-4.48849 -12.057941,-2.99233 l -16.58093,-16.45689 -19.59475,-22.44154 c -8.03893,-7.97923 -20.09779,-11.9693 -36.17567,-11.9693 l -22.60946,19.44921 c -4.01992,4.98692 -5.02422,12.96704 -3.01471,23.9386 l 18.08738,38.89843 19.59565,22.44154 c 12.22594,3.82333 21.77224,10.30731 28.63889,19.45012 l -1.50736,28.42619 -4.52207,-11.9693 h -7.53679 l -12.05796,-5.98465 c -9.62306,-10.39693 -21.68102,-18.37618 -36.17567,-23.9377 l -45.21892,-38.89843 h -4.52207 v -5.98466 h -6.02943 c 2.26059,-5.31948 0.75323,-7.31407 -4.52207,-5.98465 -6.02943,-2.24379 -8.54199,-6.23385 -7.53679,-11.9693 l -9.04324,-4.48759 c 1.50736,-4.48848 0,-5.98464 -4.52207,-4.48848 l -4.52207,-8.97698 -9.04415,-4.48849 -4.52117,-7.48081 c -4.52207,1.49616 -6.02943,8.9e-4 -4.52207,-4.48759 l -36.17567,-41.89165 -18.08739,-29.92236 -9.04414,-8.97608 -21.1021,-41.89165 -6.02943,-5.98465 -12.05886,-23.9377 v -5.98465 l -6.02853,-5.98375 v -5.98466 l -9.04414,-14.96162 -3.01472,-14.96073 -12.05796,-23.9377 v -8.97698 l -6.02943,-17.95306 -6.02942,-8.97697 -3.01472,-26.93002 -6.02943,-8.97698 -3.01471,-29.92146 -6.02853,-14.96162 v -32.91468 l -3.01472,-8.97608 c 4.01993,-1.99458 4.01993,-3.99006 0,-5.98465 v -23.9377 l -3.01471,-2.99233 V 64.859799 l 3.01471,-2.992328 c -2.0095,-7.979232 -1.0052,-12.966144 3.01472,-14.960728 V 22.969041 l 3.01471,-2.992325 c -3.51776,-1.496162 -4.52207,-5.485331 -3.01471,-11.9693004 l 3.01471,-2.991428 V -12.93796 l 6.02853,-11.96841 v -17.95395 l 12.05886,-26.93002 v -8.97608 l 6.02943,-8.97698 v -8.97697 l 9.04324,-17.95306 v -8.97698 l 9.04415,-14.96072 9.04414,-29.92236 9.04324,-11.96931 6.02943,-17.95305 9.04415,-8.97697 3.01471,-11.96841 9.04324,-8.97698 3.01472,-8.97697 30.14624,-44.88308 18.08739,-17.95306 v -7.48081 c 5.77835,0.99775 9.79827,-1.49615 12.05886,-7.48081 -1.00521,-5.98375 0.50215,-9.4745 4.52207,-10.47224 l 10.5506,-7.48081 4.52207,-7.48082 c 4.52207,1.49617 6.02943,0 4.52207,-4.48848 l 9.04415,-5.98375 -1.50736,-4.4885 12.05795,-8.97697 h 4.52208 c -2.26059,-5.31949 -0.75323,-7.31407 4.52207,-5.98465 l 4.52207,-8.97608 9.04415,-4.48848 c -1.50736,-4.4885 -9.1e-4,-5.98465 4.52116,-4.4885 l 37.68304,-31.41851 c -1.50736,-4.48849 0,-5.98465 4.52207,-4.48849 l 36.17567,-23.9377 h 7.53589 c -2.26059,-5.31949 -0.75323,-7.31408 4.52207,-5.98465 l 39.19039,-20.94538 15.07266,-11.9684 h 6.029431 l 21.1021,-11.9693 24.11682,-5.98465 9.04414,-5.98465 h 9.04414 l 6.02853,-5.98375 h 9.04414 l 12.0588599,-5.98466 H 17.461612 l 3.014715,7.48081 -19.5956461,19.44922 -15.0726699,11.9684 -9.04415,2.99233 -25.62417,22.44244 c 1.34028,5.23612 -0.66923,6.73139 -6.02852,4.48759 v 5.98465 h -4.52208 l -22.60945,28.42619 -6.02943,14.96163 1.50735,1.49526 7.53589,-7.47992 12.05886,-17.95395 34.66831,-37.40227 27.1315299,-17.95395 36.1747741,-32.91377 36.175675,-20.94628 16.580028,-13.46457 -7.535883,-1.49616 c -2.512564,4.48849 -8.541993,5.48533 -18.088289,2.99233 l -9.043242,5.98465 H 34.041639 l -18.087384,8.97608 -21.1021041,2.99232 -9.0441399,5.98465 h -6.02943 l -6.02943,5.98465 h -12.05796 l -12.05885,5.98465 h -9.04325 l -6.02943,5.98375 h -6.02943 l -15.07267,8.97698 h -9.04414 c -8.857191,8.1639 -19.910841,14.14855 -33.160951,17.95305 l -36.17477,23.93771 -15.07358,5.98464 -30.14624,23.93771 -9.04415,2.99232 -91.94518,85.27858 -40.69775,52.3639 -1.50736,-4.4885 c 7.33629,-4.28858 11.35531,-10.77165 12.05886,-19.44921 5.35929,2.2438 7.3688,0.74763 6.02943,-4.48849 l 43.71156,-49.37157 10.5515,-7.48081 c -1.00521,-5.98376 0.50215,-9.4745 4.52207,-10.47224 l 9.04324,-2.99233 39.19039,-35.907 36.17477,-26.93003 24.11772,-11.9684 15.07267,-11.9693 21.1021,-8.97698 6.02943,-5.98375 21.10209,-8.97698 6.029431,-5.98464 h 6.02943 l 30.14625,-14.96073 18.08738,-2.99233 45.2189199,-17.95395 h 9.0441443 l 21.1020998,-8.97608 h 15.073574 l 12.057957,-5.98465 27.13153,-2.99233 z m -184.234474,158.23286 -18.966141,25.99683 0.90315,4.48221 22.578741,-25.99682 c 1.8063,-4.1837 0.30075,-5.67718 -4.51575,-4.48222 z m -20.772441,30.47904 -4.51575,7.17154 c 1.8063,2.98785 3.91335,2.09141 6.32205,-2.68932 z m -9.0315,8.96443 -4.51575,7.17154 c 1.8063,2.98784 3.91334,2.0914 6.32205,-2.68933 z m -6.32205,14.34308 v 3.58577 z m -5.4189,6.2751 -10.8378,13.44663 1.8063,4.48222 13.54725,-16.13597 z m -12.6441,17.92885 v 3.58577 z m -2.70946,3.58577 v 2.68932 z m -2.70945,2.68932 -8.12835,10.75732 1.8063,0.89644 7.2252,-7.17154 z m -9.0315,11.65376 -17.15985,22.41106 v 6.2751 l -9.0315,8.96442 1.8063,10.75731 16.2567,-25.99683 3.6126,-11.65375 5.4189,-6.2751 z m -69.54255,134.46637 -1.8063,4.48221 h 3.6126 z m -3.6126,6.27509 -7.2252,7.17155 -15.35355,33.16838 -2.70945,21.51462 -9.0315,14.34308 v 15.23952 l -2.70945,8.96443 v 26.89327 l 2.70945,2.68933 -2.70945,3.58577 v 26.8932726 l -3.6126,2.689328 V 52.510405 c -3.6126,2.390815 -3.6126,4.482216 0,6.2751 l -5.4189,11.653749 v 54.682986 l 2.70945,2.68932 -2.70945,6.2751 v 83.36915 l 4.51575,7.17154 0.90315,-58.26875 3.6126,-2.68934 c 1.8063,-7.76946 0.6024,-12.84871 -3.6126,-15.23951 V 85.678779 c 4.8165,-2.39081 6.0213,-8.366502 3.6126,-17.92885 l 2.70945,-2.689324 V 16.652707 l 2.70945,-2.689327 v -29.5826 l 3.6126,-3.58577 V -78.3702 l 9.0315,-24.20394 v -8.96443 l 11.74095,-24.20395 2.70945,-17.92885 6.32205,-8.96443 z m -38.83545,398.02047 v 2.68933 z m 2.70945,6.2751 v 2.68933 z m 3.6126,2.68933 -1.8063,1.79288 10.8378,9.86087 27.0945,15.23952 18.063,6.27509 6.32205,5.37866 c 6.6228,-1.79288 9.0315,-0.29852 7.2252,4.48222 l 13.54725,10.75731 c 6.0213,-1.19496 8.4291,-5.67717 7.2252,-13.44665 l -13.54725,-10.7573 h -9.0315 l -23.4819,-11.65375 -15.35355,-2.68933 z m 146.31031,197.21734 v 4.48221 l 49.673241,34.96126 0.90315,-4.48221 -27.99765,-25.99683 -15.353541,-8.96443 z m 52.382691,39.44347 v 2.68933 z m 2.70945,2.68933 v 2.68933 l 4.51575,-0.89644 z m -108.378001,6.27509 v 2.68934 z m 117.409501,0 v 2.68934 z m 3.6126,2.68934 -1.8063,1.79288 7.2252,4.48221 8.12835,-1.79288 z m 14.4504,6.27509 -0.90315,0.89644 9.93465,8.06798 4.51575,-1.79288 c -0.6024,-5.97658 -5.11815,-8.3665 -13.54725,-7.17154 z m 24.38505,11.65375 c -2.4087,1.79289 -1.2039,2.68933 3.6126,2.68933 l 4.5157499,1.79289 c 1.2039,-5.37866 -1.50555,-6.87303 -8.1283499,-4.48222 z m 12.6440989,6.2751 v 2.68933 z m 2.709451,2.68933 v 2.68933 l 4.5157503,-0.89644 z m 43.3512001,26.89327 v 8.96443 c 7.827602,2.39081 12.944851,0.89644 15.353552,-4.48221 -2.408701,-4.78073 -7.52595,-6.2751 -15.353552,-4.48222 z m -146.310301,35.8577 -0.90315,6.2751 9.031501,-1.79289 z"
     id="path1"
     style="fill:#10b981;fill-opacity:1;stroke-width:0.899794" />
</svg>
