<?xml version="1.0" encoding="utf-8"?>
<svg viewBox="0 0 905 540" xmlns="http://www.w3.org/2000/svg">
  <g transform="matrix(1, 0, 0, 1.001649, 0, 0)">
    <path d="M 408.311 289.883 L 418.916 289.883 L 418.916 301.372 L 380.913 539.111 Q 367.951 543.751 371.191 532.925 L 408.311 289.883 Z " style="fill: rgba(0, 0, 0, 1);"/>
    <path d="M 22.095 312.861 L 60.098 314.629 L 64.517 403.008 L 70.703 400.356 L 144.058 314.629 L 186.479 312.861 L 190.898 320.815 L 127.266 393.286 L 123.73 403.892 L 197.969 520.552 L 146.709 523.203 L 91.03 440.127 L 84.844 441.895 L 61.865 471.06 L 60.098 523.203 L 18.56 523.203 L 17.676 520.552 L 15.908 319.048 L 17.676 314.629 L 22.095 312.861 Z " style="fill: rgba(0, 0, 0, 1);"/>
    <path d="M 240.391 314.629 L 256.299 314.629 L 256.299 320.815 L 291.65 523.203 L 272.207 523.203 L 272.207 517.017 L 266.904 482.549 L 230.669 482.549 L 229.785 492.271 L 224.482 523.203 L 205.039 523.203 L 205.039 517.017 L 240.391 314.629 Z M 248 371 L 235 448 L 236 451 L 262 451 L 248 371 Z " style="fill: rgba(0, 0, 0, 1);"/>
    <path d="M 302.256 314.629 L 321.699 315.513 L 321.699 488.735 L 365.889 489.619 L 365.889 523.203 L 302.256 522.319 L 302.256 314.629 Z " style="fill: rgba(0, 0, 0, 1);"/>
    <path d="M 600.977 314.629 L 644.282 314.629 L 657.539 321.699 L 669.912 350.864 L 671.68 391.519 L 666.377 414.497 L 654.004 437.476 L 675.215 523.203 L 654.888 523.203 L 654.004 520.552 L 634.561 438.359 L 618.652 439.243 L 618.652 523.203 L 600.977 523.203 L 600.977 314.629 Z M 619 348 L 619 407 L 644 405 L 652 390 Q 656 365 647 353 L 641 348 L 619 348 Z " style="fill: rgba(0, 0, 0, 1);"/>
    <path d="M 810.435 319.932 Q 854.282 328.227 878.486 356.167 L 894.395 379.146 L 905 416.265 L 905 419.8 L 896.162 460.454 L 866.997 500.225 L 840.483 516.133 L 837.832 511.714 Q 846.228 508.621 843.135 494.038 L 846.67 486.968 L 844.902 478.13 L 853.74 463.989 L 851.973 456.035 L 844.019 457.803 L 844.019 452.5 L 849.321 454.268 L 862.578 448.081 L 866.113 441.011 L 864.346 435.708 L 850.205 373.843 L 839.6 350.864 L 815.737 323.467 L 810.435 319.932 Z " style="fill: rgba(0, 0, 0, 1);"/>
    <path d="M 752.104 323.467 L 758.291 324.351 L 742.383 338.491 L 731.777 352.632 L 732.661 355.283 L 726.475 359.702 L 718.521 378.262 L 714.102 380.913 L 708.799 439.243 L 712.334 445.43 L 724.707 451.616 L 719.404 462.222 L 725.591 482.549 L 737.964 475.479 L 767.129 490.503 L 737.964 496.689 L 725.591 489.619 L 721.172 497.573 L 731.777 511.714 L 727.358 509.063 L 699.961 486.968 L 680.518 451.616 L 676.982 407.427 L 687.588 375.61 L 713.218 344.678 L 752.104 323.467 Z " style="fill: rgba(0, 0, 0, 1);"/>
    <path d="M 479.897 349.98 L 484.316 352.632 L 477.246 357.935 L 486.968 360.586 L 492.271 358.818 L 492.271 360.586 L 489.619 361.47 L 492.271 365.889 L 497.573 364.121 L 501.992 366.772 L 507.295 382.681 L 505.527 382.681 L 499.341 367.656 L 494.922 370.308 L 497.573 374.727 Q 504.938 372.407 501.992 380.913 L 502.876 383.564 L 499.341 385.332 L 492.271 372.959 L 486.968 380.029 L 479.014 381.797 L 471.06 388.867 L 459.57 393.286 L 471.06 406.543 L 494.922 416.265 L 485.2 417.148 L 463.105 400.356 L 457.803 391.519 L 463.105 388.867 L 463.989 383.564 L 465.757 387.1 L 466.641 382.681 L 464.873 379.146 L 466.641 375.61 L 463.105 365.005 L 475.479 357.935 L 479.897 349.98 Z M 475 362 L 482 368 L 490 366 L 489 362 L 475 362 Z M 472 366 L 470 370 L 471 373 L 475 367 L 472 366 Z M 484 368 L 490 371 L 484 368 Z M 476 371 L 472 378 L 478 382 L 481 374 L 476 371 Z " style="fill: rgba(0, 0, 0, 1);"/>
    <path d="M 543.53 353.516 Q 562.532 353.958 569.16 366.772 L 581.533 400.356 L 583.301 447.197 L 522.319 447.197 L 521.436 456.919 L 528.506 488.735 L 538.228 501.992 L 557.671 505.527 L 578.882 491.387 L 579.766 515.249 Q 569.218 528.564 545.298 528.506 L 526.738 517.017 L 510.83 478.13 L 509.063 416.265 L 517.9 379.146 L 532.925 358.818 L 543.53 353.516 Z M 544 376 L 536 380 L 527 395 L 521 423 L 522 426 L 571 426 L 567 397 L 560 383 L 544 376 Z " style="fill: rgba(0, 0, 0, 1);"/>
    <path d="M 460.454 374.727 L 463.105 375.61 L 458.687 378.262 L 460.454 374.727 Z " style="fill: rgba(0, 0, 0, 1);"/>
    <path d="M 506.411 399.473 L 507.295 402.124 L 500.225 415.381 L 496.689 414.497 L 506.411 399.473 Z " style="fill: rgba(0, 0, 0, 1);"/>
    <path d="M 446.313 425.986 L 459.57 432.173 L 463.989 443.662 L 472.827 433.057 L 488.735 427.754 L 493.154 429.521 L 500.225 448.081 L 501.992 490.503 L 498.457 513.481 L 492.271 523.203 L 485.2 524.971 L 479.014 515.249 L 476.362 457.803 L 470.176 460.454 L 463.105 509.946 L 453.384 528.506 L 445.43 524.087 L 441.895 511.714 L 441.895 467.524 L 437.476 459.57 L 431.289 463.989 L 425.986 490.503 L 429.521 515.249 L 425.986 523.203 L 414.497 524.971 L 406.543 513.481 L 403.008 471.06 L 404.775 444.546 L 412.729 429.521 L 418.032 427.754 L 425.986 433.94 L 426.87 440.127 L 446.313 425.986 Z " style="fill: rgba(0, 0, 0, 1);"/>
    <path d="M 738.848 457.803 L 758.291 465.757 L 762.71 471.943 L 765.361 474.595 L 760.942 475.479 L 740.615 466.641 L 737.964 463.105 L 738.848 460.454 L 738.848 457.803 Z " style="fill: rgba(0, 0, 0, 1);"/>
    <path d="M 831.646 463.105 L 830.762 465.757 L 828.11 473.711 L 819.272 477.246 L 820.156 474.595 L 822.808 471.943 L 831.646 463.105 Z " style="fill: rgba(0, 0, 0, 1);"/>
    <path d="M 826.343 484.316 L 834.297 486.968 L 823.691 494.038 L 819.272 496.689 L 814.854 490.503 L 816.621 486.084 L 826.343 484.316 Z " style="fill: rgba(0, 0, 0, 1);"/>
    <path d="M 785.688 498.457 L 810.435 507.295 L 825.459 518.784 L 827.227 522.319 L 789.224 528.506 L 785.688 528.506 L 745.918 517.017 L 748.569 512.598 L 752.988 510.83 L 757.407 507.295 L 785.688 498.457 Z " style="fill: rgba(0, 0, 0, 1);"/>
    <path d="M 419.8 289.883 L 420.684 296.069 L 418.916 296.069 L 419.8 289.883 Z " style="fill: rgba(127, 127, 127, 1);"/>
    <path d="M 418.032 302.256 L 418.916 308.442 L 417.148 308.442 L 418.032 302.256 Z " style="fill: rgba(127, 127, 127, 1);"/>
    <path d="M 57.446 312.861 L 61.865 315.513 L 60.981 318.164 L 60.098 314.629 L 57.446 312.861 Z " style="fill: rgba(127, 127, 127, 1);"/>
    <path d="M 403.892 314.629 L 404.775 319.048 L 403.008 319.048 L 403.892 314.629 Z " style="fill: rgba(127, 127, 127, 1);"/>
    <path d="M 600.093 314.629 L 600.977 523.203 L 618.652 522.319 L 618.652 439.243 L 620.42 439.243 L 617.769 524.971 L 599.209 522.319 L 600.093 314.629 Z " style="fill: rgba(127, 127, 127, 1);"/>
    <path d="M 257.183 316.396 L 258.066 320.815 L 256.299 320.815 L 257.183 316.396 Z " style="fill: rgba(127, 127, 127, 1);"/>
    <path d="M 768.013 316.396 L 779.502 317.28 L 768.013 321.699 L 768.013 316.396 Z " style="fill: rgba(127, 127, 127, 1);"/>
    <path d="M 801.597 316.396 L 821.04 318.164 L 838.716 327.002 L 843.135 327.886 L 842.251 330.537 L 832.529 327.002 L 831.646 323.467 L 824.575 323.467 L 821.924 320.815 L 819.272 321.699 L 810.435 319.932 L 806.899 319.932 L 801.597 316.396 Z " style="fill: rgba(127, 127, 127, 1);"/>
    <path d="M 760.942 318.164 L 763.594 319.048 L 760.059 319.932 L 761.826 324.351 L 744.15 340.259 L 735.313 353.516 L 731.777 352.632 L 752.104 328.77 L 758.291 324.351 L 754.756 323.467 L 759.175 319.932 L 760.942 318.164 Z " style="fill: rgba(127, 127, 127, 1);"/>
    <path d="M 749.453 321.699 L 752.988 322.583 L 749.453 324.351 L 749.453 321.699 Z " style="fill: rgba(127, 127, 127, 1);"/>
    <path d="M 745.034 323.467 L 745.918 327.002 L 737.964 330.537 L 735.313 329.653 L 734.429 332.305 L 731.777 331.421 L 729.126 334.072 L 722.056 337.607 L 723.823 334.072 L 739.731 325.234 L 745.034 323.467 Z " style="fill: rgba(127, 127, 127, 1);"/>
    <path d="M 402.124 325.234 L 403.008 331.421 L 401.24 331.421 L 402.124 325.234 Z " style="fill: rgba(127, 127, 127, 1);"/>
    <path d="M 258.95 327.002 L 259.834 331.421 L 258.066 331.421 L 258.95 327.002 Z " style="fill: rgba(127, 127, 127, 1);"/>
    <path d="M 848.438 330.537 L 853.74 333.188 L 854.624 335.84 L 859.927 337.607 L 866.113 342.026 L 871.416 349.097 L 864.346 343.794 L 861.694 341.143 L 851.089 334.072 L 848.438 330.537 Z " style="fill: rgba(127, 127, 127, 1);"/>
    <path d="M 235.972 337.607 L 236.855 342.026 L 235.088 342.026 L 235.972 337.607 Z " style="fill: rgba(127, 127, 127, 1);"/>
    <path d="M 400.356 337.607 L 401.24 342.026 L 399.473 342.026 L 400.356 337.607 Z " style="fill: rgba(127, 127, 127, 1);"/>
    <path d="M 718.521 337.607 L 717.637 340.259 L 714.985 344.678 L 712.334 343.794 L 718.521 337.607 Z " style="fill: rgba(127, 127, 127, 1);"/>
    <path d="M 709.683 344.678 L 708.799 347.329 L 706.147 349.98 L 697.31 362.354 L 709.683 344.678 Z " style="fill: rgba(127, 127, 127, 1);"/>
    <path d="M 410.962 348.213 L 411.846 354.399 L 410.078 354.399 L 410.962 348.213 Z " style="fill: rgba(127, 127, 127, 1);"/>
    <path d="M 483.433 348.213 L 489.619 350.864 L 485.2 353.516 L 480.781 350.864 L 483.433 348.213 Z " style="fill: rgba(127, 127, 127, 1);"/>
    <path d="M 618.652 348.213 L 641.631 349.097 L 620.42 349.98 L 620.42 404.775 L 640.747 404.775 L 640.747 406.543 L 618.652 406.543 L 618.652 348.213 Z " style="fill: rgba(127, 127, 127, 1);"/>
    <path d="M 398.589 349.98 L 399.473 354.399 L 397.705 354.399 L 398.589 349.98 Z " style="fill: rgba(127, 127, 127, 1);"/>
    <path d="M 875.835 349.98 L 887.324 363.237 L 884.673 362.354 L 878.486 357.935 L 875.835 349.98 Z " style="fill: rgba(127, 127, 127, 1);"/>
    <path d="M 670.796 355.283 L 671.68 359.702 L 669.912 359.702 L 670.796 355.283 Z " style="fill: rgba(127, 127, 127, 1);"/>
    <path d="M 730.894 355.283 L 730.01 357.935 L 725.591 365.889 L 724.707 363.237 L 730.894 355.283 Z " style="fill: rgba(127, 127, 127, 1);"/>
    <path d="M 264.253 357.051 L 265.137 361.47 L 263.369 361.47 L 264.253 357.051 Z " style="fill: rgba(127, 127, 127, 1);"/>
    <path d="M 474.595 357.051 L 469.292 364.121 L 466.641 363.237 L 474.595 357.051 Z " style="fill: rgba(127, 127, 127, 1);"/>
    <path d="M 494.038 358.818 L 496.689 365.005 L 491.387 365.005 L 494.038 358.818 Z " style="fill: rgba(127, 127, 127, 1);"/>
    <path d="M 409.194 360.586 L 410.078 365.005 L 408.311 365.005 L 409.194 360.586 Z " style="fill: rgba(127, 127, 127, 1);"/>
    <path d="M 396.821 362.354 L 397.705 366.772 L 395.938 366.772 L 396.821 362.354 Z " style="fill: rgba(127, 127, 127, 1);"/>
    <path d="M 474.595 362.354 L 480.781 363.237 L 473.711 368.54 L 471.06 372.959 L 471.943 370.308 L 474.595 365.889 L 474.595 362.354 Z " style="fill: rgba(127, 127, 127, 1);"/>
    <path d="M 456.919 364.121 L 464.873 366.772 L 466.641 377.378 L 464.873 380.913 L 465.757 383.564 L 460.454 388.867 L 457.803 389.751 L 458.687 387.1 L 456.035 379.146 L 452.5 372.075 L 453.384 367.656 L 457.803 366.772 L 456.919 364.121 Z M 457 369 L 456 374 L 458 374 L 457 369 Z M 460 369 L 460 374 L 457 378 L 462 376 L 465 377 L 462 375 L 463 372 L 460 369 Z M 460 378 L 460 383 L 460 387 L 463 381 L 460 378 Z " style="fill: rgba(127, 127, 127, 1);"/>
    <path d="M 266.021 365.889 L 266.904 372.075 L 265.137 372.075 L 266.021 365.889 Z " style="fill: rgba(127, 127, 127, 1);"/>
    <path d="M 481.665 365.889 L 486.084 368.54 L 483.433 367.656 L 481.665 365.889 Z " style="fill: rgba(127, 127, 127, 1);"/>
    <path d="M 502.876 367.656 L 501.108 372.959 L 503.76 373.843 L 498.457 374.727 L 502.876 367.656 Z " style="fill: rgba(127, 127, 127, 1);"/>
    <path d="M 570.044 367.656 L 572.695 372.075 L 570.928 372.075 L 570.044 367.656 Z " style="fill: rgba(127, 127, 127, 1);"/>
    <path d="M 888.208 369.424 L 894.395 373.843 L 891.743 376.494 L 889.976 371.191 L 888.208 369.424 Z " style="fill: rgba(127, 127, 127, 1);"/>
    <path d="M 476.362 371.191 L 479.897 372.959 L 482.549 372.075 L 476.362 374.727 L 473.711 373.843 L 476.362 371.191 Z " style="fill: rgba(127, 127, 127, 1);"/>
    <path d="M 395.054 372.959 L 395.938 377.378 L 394.17 377.378 L 395.054 372.959 Z " style="fill: rgba(127, 127, 127, 1);"/>
    <path d="M 267.788 376.494 L 268.672 380.913 L 266.904 380.913 L 267.788 376.494 Z " style="fill: rgba(127, 127, 127, 1);"/>
    <path d="M 228.901 378.262 L 229.785 382.681 L 228.018 382.681 L 228.901 378.262 Z " style="fill: rgba(127, 127, 127, 1);"/>
    <path d="M 250.112 378.262 L 250.996 382.681 L 249.229 382.681 L 250.112 378.262 Z " style="fill: rgba(127, 127, 127, 1);"/>
    <path d="M 478.13 378.262 L 480.781 382.681 L 477.246 380.913 L 478.13 378.262 Z " style="fill: rgba(127, 127, 127, 1);"/>
    <path d="M 488.735 378.262 L 486.968 381.797 L 484.316 380.913 L 488.735 378.262 Z " style="fill: rgba(127, 127, 127, 1);"/>
    <path d="M 508.179 378.262 L 509.063 399.473 L 505.527 395.054 L 505.527 391.519 L 508.179 378.262 Z " style="fill: rgba(127, 127, 127, 1);"/>
    <path d="M 716.753 378.262 L 719.404 379.146 L 717.637 383.564 L 714.102 384.448 L 715.869 388.867 L 712.334 384.448 L 716.753 378.262 Z " style="fill: rgba(127, 127, 127, 1);"/>
    <path d="M 895.278 378.262 L 899.697 386.216 L 896.162 387.983 L 895.278 378.262 Z " style="fill: rgba(127, 127, 127, 1);"/>
    <path d="M 501.108 383.564 L 503.76 391.519 L 501.992 391.519 L 501.108 383.564 Z " style="fill: rgba(127, 127, 127, 1);"/>
    <path d="M 227.134 388.867 L 228.018 393.286 L 226.25 393.286 L 227.134 388.867 Z " style="fill: rgba(127, 127, 127, 1);"/>
    <path d="M 251.88 388.867 L 252.764 395.054 L 250.996 395.054 L 251.88 388.867 Z " style="fill: rgba(127, 127, 127, 1);"/>
    <path d="M 244.81 390.635 L 245.693 395.054 L 243.926 395.054 L 244.81 390.635 Z " style="fill: rgba(127, 127, 127, 1);"/>
    <path d="M 854.624 390.635 L 855.508 395.054 L 853.74 395.054 L 854.624 390.635 Z " style="fill: rgba(127, 127, 127, 1);"/>
    <path d="M 456.919 392.402 L 461.338 393.286 L 462.222 399.473 L 456.919 392.402 Z " style="fill: rgba(127, 127, 127, 1);"/>
    <path d="M 670.796 392.402 L 671.68 396.821 L 669.912 396.821 L 670.796 392.402 Z " style="fill: rgba(127, 127, 127, 1);"/>
    <path d="M 403.892 395.938 L 404.775 402.124 L 403.008 402.124 L 403.892 395.938 Z " style="fill: rgba(127, 127, 127, 1);"/>
    <path d="M 444.546 395.938 L 445.43 400.356 L 443.662 400.356 L 444.546 395.938 Z " style="fill: rgba(127, 127, 127, 1);"/>
    <path d="M 902.349 395.938 L 903.232 401.24 L 899.697 398.589 L 902.349 395.938 Z " style="fill: rgba(127, 127, 127, 1);"/>
    <path d="M 243.042 401.24 L 243.926 405.659 L 242.158 405.659 L 243.042 401.24 Z " style="fill: rgba(127, 127, 127, 1);"/>
    <path d="M 677.866 401.24 L 678.75 405.659 L 676.982 405.659 L 677.866 401.24 Z " style="fill: rgba(127, 127, 127, 1);"/>
    <path d="M 856.392 403.008 L 859.043 410.962 L 857.275 410.962 L 856.392 403.008 Z " style="fill: rgba(127, 127, 127, 1);"/>
    <path d="M 904.116 403.008 L 905 409.194 L 901.465 407.427 L 904.116 403.008 Z " style="fill: rgba(127, 127, 127, 1);"/>
    <path d="M 273.091 406.543 L 273.975 412.729 L 272.207 412.729 L 273.091 406.543 Z " style="fill: rgba(127, 127, 127, 1);"/>
    <path d="M 524.087 406.543 L 524.971 412.729 L 523.203 412.729 L 524.087 406.543 Z " style="fill: rgba(127, 127, 127, 1);"/>
    <path d="M 711.45 406.543 L 712.334 435.708 L 712.334 439.243 L 714.985 443.662 L 717.637 446.313 L 714.985 445.43 L 712.334 442.778 L 708.799 439.243 L 708.799 416.265 L 711.45 406.543 Z " style="fill: rgba(127, 127, 127, 1);"/>
    <path d="M 389.751 408.311 L 390.635 412.729 L 388.867 412.729 L 389.751 408.311 Z " style="fill: rgba(127, 127, 127, 1);"/>
    <path d="M 402.124 408.311 L 403.008 412.729 L 401.24 412.729 L 402.124 408.311 Z " style="fill: rgba(127, 127, 127, 1);"/>
    <path d="M 509.946 408.311 L 510.83 414.497 L 509.063 414.497 L 509.946 408.311 Z " style="fill: rgba(127, 127, 127, 1);"/>
    <path d="M 449.849 410.078 L 464.873 421.567 L 462.222 422.451 L 450.732 414.497 L 449.849 410.078 Z " style="fill: rgba(127, 127, 127, 1);"/>
    <path d="M 582.417 410.078 L 583.301 414.497 L 581.533 414.497 L 582.417 410.078 Z " style="fill: rgba(127, 127, 127, 1);"/>
    <path d="M 495.806 413.613 L 497.573 417.148 L 485.2 422.451 L 485.2 420.684 L 494.922 416.265 L 495.806 413.613 Z " style="fill: rgba(127, 127, 127, 1);"/>
    <path d="M 676.099 413.613 L 676.982 426.87 L 675.215 426.87 L 676.099 413.613 Z " style="fill: rgba(127, 127, 127, 1);"/>
    <path d="M 570.044 415.381 L 570.928 425.103 L 569.16 425.103 L 570.044 415.381 Z " style="fill: rgba(127, 127, 127, 1);"/>
    <path d="M 859.927 415.381 L 862.578 426.87 L 864.346 432.173 L 860.811 434.824 L 857.275 418.032 L 859.927 415.381 Z " style="fill: rgba(127, 127, 127, 1);"/>
    <path d="M 274.858 417.148 L 275.742 421.567 L 273.975 421.567 L 274.858 417.148 Z " style="fill: rgba(127, 127, 127, 1);"/>
    <path d="M 221.831 418.916 L 222.715 423.335 L 220.947 423.335 L 221.831 418.916 Z " style="fill: rgba(127, 127, 127, 1);"/>
    <path d="M 387.983 418.916 L 388.867 425.103 L 387.1 425.103 L 387.983 418.916 Z " style="fill: rgba(127, 127, 127, 1);"/>
    <path d="M 476.362 422.451 L 482.549 423.335 L 476.362 424.219 L 476.362 422.451 Z " style="fill: rgba(127, 127, 127, 1);"/>
    <path d="M 257.183 424.219 L 258.066 428.638 L 256.299 428.638 L 257.183 424.219 Z " style="fill: rgba(127, 127, 127, 1);"/>
    <path d="M 508.179 425.986 L 509.063 456.919 L 507.295 456.919 L 508.179 425.986 Z " style="fill: rgba(127, 127, 127, 1);"/>
    <path d="M 220.063 429.521 L 220.947 433.94 L 219.18 433.94 L 220.063 429.521 Z " style="fill: rgba(127, 127, 127, 1);"/>
    <path d="M 386.216 431.289 L 387.1 435.708 L 385.332 435.708 L 386.216 431.289 Z " style="fill: rgba(127, 127, 127, 1);"/>
    <path d="M 904.116 433.057 L 905 441.011 L 903.232 448.965 L 899.697 446.313 L 904.116 433.057 Z " style="fill: rgba(127, 127, 127, 1);"/>
    <path d="M 258.95 434.824 L 259.834 441.011 L 258.066 441.011 L 258.95 434.824 Z " style="fill: rgba(127, 127, 127, 1);"/>
    <path d="M 237.739 436.592 L 238.623 441.011 L 236.855 441.011 L 237.739 436.592 Z " style="fill: rgba(127, 127, 127, 1);"/>
    <path d="M 862.578 436.592 L 866.113 437.476 L 864.346 442.778 L 859.927 450.732 L 851.089 452.5 L 851.089 450.732 L 860.811 448.965 L 862.578 436.592 Z " style="fill: rgba(127, 127, 127, 1);"/>
    <path d="M 396.821 443.662 L 397.705 448.081 L 395.938 448.081 L 396.821 443.662 Z " style="fill: rgba(127, 127, 127, 1);"/>
    <path d="M 235.972 447.197 L 258.95 448.965 L 261.602 448.081 L 260.718 450.732 L 235.088 450.732 L 235.972 447.197 Z " style="fill: rgba(127, 127, 127, 1);"/>
    <path d="M 522.319 447.197 L 523.203 456.919 L 521.436 456.919 L 522.319 447.197 Z " style="fill: rgba(127, 127, 127, 1);"/>
    <path d="M 403.892 450.732 L 404.775 469.292 L 403.008 469.292 L 403.892 450.732 Z " style="fill: rgba(127, 127, 127, 1);"/>
    <path d="M 900.581 450.732 L 901.465 454.268 L 897.93 453.384 L 900.581 450.732 Z " style="fill: rgba(127, 127, 127, 1);"/>
    <path d="M 501.108 452.5 L 501.992 458.687 L 500.225 458.687 L 501.108 452.5 Z " style="fill: rgba(127, 127, 127, 1);"/>
    <path d="M 842.251 452.5 L 842.251 457.803 L 830.762 463.989 L 832.529 467.524 L 830.762 467.524 L 829.878 464.873 L 820.156 471.943 L 819.272 475.479 L 816.621 471.06 L 820.156 471.06 L 828.11 464.873 L 828.11 461.338 L 830.762 462.222 L 836.948 454.268 L 842.251 452.5 Z " style="fill: rgba(127, 127, 127, 1);"/>
    <path d="M 395.054 454.268 L 395.938 460.454 L 394.17 460.454 L 395.054 454.268 Z " style="fill: rgba(127, 127, 127, 1);"/>
    <path d="M 845.786 456.035 L 851.973 456.919 L 845.786 457.803 L 845.786 456.035 Z " style="fill: rgba(127, 127, 127, 1);"/>
    <path d="M 896.162 456.035 L 899.697 458.687 L 895.278 466.641 L 892.627 465.757 L 896.162 456.035 Z " style="fill: rgba(127, 127, 127, 1);"/>
    <path d="M 281.929 457.803 L 282.813 462.222 L 281.045 462.222 L 281.929 457.803 Z " style="fill: rgba(127, 127, 127, 1);"/>
    <path d="M 476.362 457.803 L 479.014 462.222 L 477.246 462.222 L 476.362 457.803 Z " style="fill: rgba(127, 127, 127, 1);"/>
    <path d="M 722.056 457.803 L 721.172 460.454 L 720.288 463.105 L 719.404 460.454 L 722.056 457.803 Z " style="fill: rgba(127, 127, 127, 1);"/>
    <path d="M 435.708 459.57 L 440.127 462.222 L 437.476 461.338 L 432.173 464.873 L 435.708 459.57 Z " style="fill: rgba(127, 127, 127, 1);"/>
    <path d="M 748.569 461.338 L 752.988 462.222 L 748.569 463.105 L 748.569 461.338 Z " style="fill: rgba(127, 127, 127, 1);"/>
    <path d="M 852.856 463.105 L 853.74 465.757 L 849.321 473.711 L 846.67 476.362 L 844.902 476.362 L 852.856 463.105 Z " style="fill: rgba(127, 127, 127, 1);"/>
    <path d="M 722.056 464.873 L 724.707 471.06 L 722.939 471.06 L 722.056 464.873 Z " style="fill: rgba(127, 127, 127, 1);"/>
    <path d="M 380.913 466.641 L 381.797 471.06 L 380.029 471.06 L 380.913 466.641 Z " style="fill: rgba(127, 127, 127, 1);"/>
    <path d="M 441.011 466.641 L 441.895 476.362 L 440.127 476.362 L 441.011 466.641 Z " style="fill: rgba(127, 127, 127, 1);"/>
    <path d="M 524.087 466.641 L 524.971 471.06 L 523.203 471.06 L 524.087 466.641 Z " style="fill: rgba(127, 127, 127, 1);"/>
    <path d="M 743.267 466.641 L 756.523 471.943 L 758.291 476.362 L 753.872 473.711 L 743.267 466.641 Z " style="fill: rgba(127, 127, 127, 1);"/>
    <path d="M 759.175 466.641 L 765.361 471.06 L 762.71 471.943 L 759.175 466.641 Z " style="fill: rgba(127, 127, 127, 1);"/>
    <path d="M 509.946 468.408 L 510.83 474.595 L 509.063 474.595 L 509.946 468.408 Z " style="fill: rgba(127, 127, 127, 1);"/>
    <path d="M 212.993 470.176 L 213.877 474.595 L 212.109 474.595 L 212.993 470.176 Z " style="fill: rgba(127, 127, 127, 1);"/>
    <path d="M 403.892 471.943 L 404.775 497.573 L 403.008 497.573 L 403.892 471.943 Z " style="fill: rgba(127, 127, 127, 1);"/>
    <path d="M 690.239 471.943 L 694.658 478.13 L 691.123 476.362 L 690.239 471.943 Z " style="fill: rgba(127, 127, 127, 1);"/>
    <path d="M 889.092 471.943 L 892.627 472.827 L 889.092 474.595 L 889.092 471.943 Z " style="fill: rgba(127, 127, 127, 1);"/>
    <path d="M 734.429 473.711 L 737.08 474.595 L 729.126 480.781 L 734.429 473.711 Z " style="fill: rgba(127, 127, 127, 1);"/>
    <path d="M 766.245 473.711 L 767.129 479.014 L 763.594 478.13 L 766.245 473.711 Z " style="fill: rgba(127, 127, 127, 1);"/>
    <path d="M 741.499 475.479 L 745.034 480.781 L 740.615 479.014 L 741.499 475.479 Z " style="fill: rgba(127, 127, 127, 1);"/>
    <path d="M 379.146 477.246 L 380.029 483.433 L 378.262 483.433 L 379.146 477.246 Z " style="fill: rgba(127, 127, 127, 1);"/>
    <path d="M 886.44 477.246 L 889.092 478.13 L 884.673 484.316 L 882.021 485.2 L 881.138 489.619 L 882.905 482.549 L 885.557 481.665 L 886.44 477.246 Z " style="fill: rgba(127, 127, 127, 1);"/>
    <path d="M 426.87 479.014 L 427.754 490.503 L 425.986 490.503 L 426.87 479.014 Z " style="fill: rgba(127, 127, 127, 1);"/>
    <path d="M 465.757 479.014 L 466.641 483.433 L 464.873 483.433 L 465.757 479.014 Z " style="fill: rgba(127, 127, 127, 1);"/>
    <path d="M 845.786 479.014 L 846.67 486.968 L 844.902 486.968 L 845.786 479.014 Z " style="fill: rgba(127, 127, 127, 1);"/>
    <path d="M 748.569 480.781 L 752.988 483.433 L 750.337 484.316 L 748.569 480.781 Z " style="fill: rgba(127, 127, 127, 1);"/>
    <path d="M 229.785 482.549 L 266.021 482.549 L 266.904 485.2 L 264.253 484.316 L 230.669 486.084 L 229.785 482.549 Z " style="fill: rgba(127, 127, 127, 1);"/>
    <path d="M 819.272 484.316 L 825.459 485.2 L 819.272 486.084 L 819.272 484.316 Z " style="fill: rgba(127, 127, 127, 1);"/>
    <path d="M 478.13 486.084 L 479.014 509.946 L 477.246 509.946 L 478.13 486.084 Z " style="fill: rgba(127, 127, 127, 1);"/>
    <path d="M 815.737 486.084 L 816.621 488.735 L 814.854 492.271 L 817.505 496.689 L 814.854 494.038 L 809.551 492.271 L 813.086 492.271 L 811.318 488.735 L 814.854 488.735 L 815.737 486.084 Z " style="fill: rgba(127, 127, 127, 1);"/>
    <path d="M 835.181 486.084 L 836.064 489.619 L 832.529 488.735 L 835.181 486.084 Z " style="fill: rgba(127, 127, 127, 1);"/>
    <path d="M 646.05 487.852 L 646.934 492.271 L 645.166 492.271 L 646.05 487.852 Z " style="fill: rgba(127, 127, 127, 1);"/>
    <path d="M 366.772 489.619 L 367.656 522.319 L 303.14 524.971 L 303.14 523.203 L 365.889 523.203 L 366.772 489.619 Z " style="fill: rgba(127, 127, 127, 1);"/>
    <path d="M 580.649 489.619 L 581.533 513.481 L 579.766 513.481 L 580.649 489.619 Z " style="fill: rgba(127, 127, 127, 1);"/>
    <path d="M 838.716 489.619 L 843.135 490.503 L 838.716 491.387 L 838.716 489.619 Z " style="fill: rgba(127, 127, 127, 1);"/>
    <path d="M 267.788 491.387 L 268.672 495.806 L 266.904 495.806 L 267.788 491.387 Z " style="fill: rgba(127, 127, 127, 1);"/>
    <path d="M 501.108 491.387 L 501.992 501.108 L 500.225 501.108 L 501.108 491.387 Z " style="fill: rgba(127, 127, 127, 1);"/>
    <path d="M 732.661 491.387 L 745.918 497.573 L 737.964 498.457 L 732.661 491.387 Z " style="fill: rgba(127, 127, 127, 1);"/>
    <path d="M 877.603 491.387 L 866.997 503.76 L 851.089 514.365 L 850.205 511.714 L 857.275 508.179 L 862.578 502.876 L 873.184 495.806 L 875.835 493.154 L 877.603 491.387 Z " style="fill: rgba(127, 127, 127, 1);"/>
    <path d="M 228.901 493.154 L 229.785 497.573 L 228.018 497.573 L 228.901 493.154 Z " style="fill: rgba(127, 127, 127, 1);"/>
    <path d="M 840.483 493.154 L 843.135 501.108 L 841.367 501.108 L 840.483 493.154 Z " style="fill: rgba(127, 127, 127, 1);"/>
    <path d="M 463.989 494.922 L 464.873 504.644 L 463.105 504.644 L 463.989 494.922 Z " style="fill: rgba(127, 127, 127, 1);"/>
    <path d="M 288.999 498.457 L 289.883 502.876 L 288.115 502.876 L 288.999 498.457 Z " style="fill: rgba(127, 127, 127, 1);"/>
    <path d="M 782.153 498.457 L 784.805 499.341 L 776.851 501.992 L 776.851 500.225 L 782.153 498.457 Z " style="fill: rgba(127, 127, 127, 1);"/>
    <path d="M 387.983 500.225 L 388.867 506.411 L 387.1 506.411 L 387.983 500.225 Z " style="fill: rgba(127, 127, 127, 1);"/>
    <path d="M 428.638 500.225 L 429.521 508.179 L 427.754 508.179 L 428.638 500.225 Z " style="fill: rgba(127, 127, 127, 1);"/>
    <path d="M 771.548 500.225 L 774.199 501.108 L 764.478 503.76 L 764.478 501.992 L 771.548 500.225 Z " style="fill: rgba(127, 127, 127, 1);"/>
    <path d="M 227.134 503.76 L 228.018 509.946 L 226.25 509.946 L 227.134 503.76 Z " style="fill: rgba(127, 127, 127, 1);"/>
    <path d="M 730.894 507.295 L 733.545 511.714 L 731.777 511.714 L 730.894 507.295 Z " style="fill: rgba(127, 127, 127, 1);"/>
    <path d="M 752.104 507.295 L 752.988 510.83 L 746.802 512.598 L 748.569 509.063 L 752.104 507.295 Z " style="fill: rgba(127, 127, 127, 1);"/>
    <path d="M 205.923 510.83 L 206.807 515.249 L 205.039 515.249 L 205.923 510.83 Z " style="fill: rgba(127, 127, 127, 1);"/>
    <path d="M 373.843 512.598 L 374.727 518.784 L 372.959 518.784 L 373.843 512.598 Z " style="fill: rgba(127, 127, 127, 1);"/>
    <path d="M 386.216 512.598 L 387.1 517.017 L 385.332 517.017 L 386.216 512.598 Z " style="fill: rgba(127, 127, 127, 1);"/>
    <path d="M 442.778 512.598 L 443.662 517.017 L 441.895 517.017 L 442.778 512.598 Z " style="fill: rgba(127, 127, 127, 1);"/>
    <path d="M 842.251 514.365 L 848.438 515.249 L 840.483 519.668 L 840.483 517.9 L 843.135 517.017 L 842.251 514.365 Z " style="fill: rgba(127, 127, 127, 1);"/>
    <path d="M 292.534 519.668 L 293.418 524.971 L 272.207 524.087 L 291.65 523.203 L 292.534 519.668 Z " style="fill: rgba(127, 127, 127, 1);"/>
    <path d="M 653.12 519.668 L 654.004 523.203 L 676.099 521.436 L 674.331 524.971 L 652.236 522.319 L 653.12 519.668 Z " style="fill: rgba(127, 127, 127, 1);"/>
    <path d="M 197.085 521.436 L 195.317 524.971 L 148.477 524.087 L 197.085 521.436 Z " style="fill: rgba(127, 127, 127, 1);"/>
    <path d="M 204.155 521.436 L 224.482 524.087 L 205.923 524.971 L 204.155 521.436 Z " style="fill: rgba(127, 127, 127, 1);"/>
    <path d="M 20.327 523.203 L 58.33 524.087 L 20.327 524.971 L 20.327 523.203 Z " style="fill: rgba(127, 127, 127, 1);"/>
    <path d="M 423.335 523.203 L 421.567 526.738 L 415.381 525.854 L 423.335 523.203 Z " style="fill: rgba(127, 127, 127, 1);"/>
    <path d="M 819.272 523.203 L 825.459 524.087 L 819.272 524.971 L 819.272 523.203 Z " style="fill: rgba(127, 127, 127, 1);"/>
    <path d="M 372.075 524.971 L 372.959 531.157 L 371.191 531.157 L 372.075 524.971 Z " style="fill: rgba(127, 127, 127, 1);"/>
    <path d="M 766.245 524.971 L 770.664 525.854 L 766.245 526.738 L 766.245 524.971 Z " style="fill: rgba(127, 127, 127, 1);"/>
    <path d="M 808.667 524.971 L 814.854 525.854 L 808.667 526.738 L 808.667 524.971 Z " style="fill: rgba(127, 127, 127, 1);"/>
  </g>
</svg>